<?xml version="1.0" encoding="UTF-8" standalone="no"?>
<!DOCTYPE svg PUBLIC "-//W3C//DTD SVG 1.1//EN" "http://www.w3.org/Graphics/SVG/1.1/DTD/svg11.dtd">
<svg xmlns="http://www.w3.org/2000/svg" version="1.1" viewBox="0 0 400 173">
<rect fill="#307ec1" x="26.01" y="56.54" width="8.74" height="59.88" rx="1.08"/>
<path fill="#002754" d="
  M 214.44 72.36
  L 214.59 57.56
  A 0.80 0.64 81.7 0 1 215.01 56.85
  Q 216.59 56.23 219.62 56.81
  A 1.08 1.07 -84.9 0 1 220.50 57.87
  L 220.50 102.61
  Q 220.50 104.38 218.93 105.20
  Q 214.84 107.35 214.74 101.57
  Q 214.70 98.65 212.85 100.91
  Q 209.39 105.14 202.98 105.85
  Q 191.95 107.09 185.93 99.55
  Q 182.81 95.63 181.91 90.37
  Q 181.01 85.09 182.57 80.07
  Q 184.52 73.77 189.27 70.24
  Q 194.34 66.46 201.49 66.86
  Q 208.87 67.28 214.01 72.51
  Q 214.44 72.95 214.44 72.36
  Z
  M 201.3749 101.1862
  A 14.76 13.78 88.7 0 0 214.8165 86.1174
  A 14.76 13.78 88.7 0 0 200.7051 71.6738
  A 14.76 13.78 88.7 0 0 187.2635 86.7426
  A 14.76 13.78 88.7 0 0 201.3749 101.1862
  Z"
/>
<path fill="#002754" d="
  M 249.23 101.20
  Q 251.11 102.48 250.04 104.03
  Q 249.43 104.91 248.04 105.41
  Q 244.90 106.55 241.49 106.04
  Q 234.39 104.98 232.86 99.34
  Q 232.49 97.98 232.53 89.63
  Q 232.60 73.59 232.32 57.56
  A 0.67 0.65 81.5 0 1 232.79 56.91
  Q 235.02 56.25 237.41 56.71
  A 0.72 0.72 5.3 0 1 238.00 57.42
  L 238.00 66.40
  A 0.83 0.83 -1.6 0 0 238.88 67.23
  Q 243.25 66.95 248.00 67.19
  Q 251.33 67.37 250.44 70.95
  A 1.06 0.99 -82.7 0 1 249.48 71.75
  L 238.64 71.97
  A 0.65 0.62 -0.5 0 0 238.00 72.59
  Q 238.00 83.87 238.02 94.00
  Q 238.02 96.99 239.76 99.30
  A 1.63 1.52 -7.5 0 0 240.53 99.85
  Q 244.30 101.07 248.32 100.96
  A 1.63 1.29 -23.5 0 1 249.23 101.20
  Z"
/>
<path fill="#89c7e8" d="
  M 0.00 105.94
  Q 0.00 86.81 0.00 67.69
  Q 0.14 67.45 0.27 67.20
  A 0.97 0.81 -74.5 0 1 1.00 66.70
  L 7.79 66.52
  A 0.98 0.93 89.2 0 1 8.75 67.50
  L 8.75 105.81
  A 0.60 0.60 2.2 0 1 8.10 106.41
  Q 4.97 106.17 1.50 106.50
  Q 0.38 106.61 0.00 105.94
  Z"
/>
<path fill="#002754" d="
  M 124.83 73.11
  Q 129.03 68.25 134.89 67.07
  Q 140.68 65.90 145.79 68.66
  Q 150.48 71.20 152.73 76.22
  Q 154.00 79.05 154.00 84.01
  Q 154.00 93.34 154.00 102.66
  Q 154.00 104.64 153.29 105.09
  Q 152.33 105.69 150.16 105.19
  A 1.96 1.95 -1.2 0 1 148.71 103.81
  Q 148.01 101.28 148.11 98.25
  Q 148.36 90.60 148.13 82.96
  Q 148.00 78.71 146.53 76.37
  Q 143.92 72.22 139.08 71.90
  Q 134.16 71.57 130.84 74.87
  Q 127.41 78.28 127.52 84.00
  Q 127.68 93.01 127.27 101.53
  A 1.76 1.76 -4.2 0 1 125.84 103.18
  Q 121.88 103.95 122.25 100.25
  Q 122.59 96.79 122.18 85.61
  Q 121.96 79.71 120.63 77.12
  Q 118.22 72.44 112.70 72.05
  Q 108.31 71.73 105.25 74.10
  Q 102.93 75.90 101.91 78.77
  Q 101.24 80.63 101.26 84.31
  Q 101.28 90.91 101.42 97.50
  Q 101.49 101.04 100.85 104.06
  A 1.78 1.78 -88.3 0 1 99.39 105.44
  Q 95.50 106.06 95.68 102.88
  Q 95.75 101.66 95.75 101.62
  Q 95.75 92.68 95.75 83.75
  Q 95.75 76.92 99.41 72.65
  Q 106.13 64.81 116.00 67.25
  Q 120.96 68.48 124.21 73.08
  A 0.39 0.39 -42.2 0 0 124.83 73.11
  Z"
/>
<rect fill="#002754" x="166.02" y="66.76" width="5.96" height="39.00" rx="2.91"/>
<path fill="#002754" d="
  M 330.69 72.94
  Q 336.03 66.82 343.25 66.73
  Q 349.95 66.65 355.05 70.96
  Q 360.50 75.58 360.50 83.50
  Q 360.50 92.75 360.50 102.00
  Q 360.50 106.46 355.92 105.43
  A 0.92 0.92 -3.5 0 1 355.25 104.84
  Q 354.59 103.02 354.75 100.25
  Q 355.15 93.53 354.55 84.66
  Q 354.22 79.65 352.73 77.15
  Q 350.40 73.24 345.99 72.36
  Q 340.62 71.29 336.63 74.65
  Q 332.41 78.20 333.00 85.00
  Q 333.38 89.36 332.83 102.00
  Q 332.73 104.26 331.64 105.08
  Q 330.25 106.13 328.15 105.27
  A 1.07 1.01 4.7 0 1 327.54 104.59
  Q 327.07 102.80 327.00 99.00
  Q 326.77 85.74 327.25 80.50
  Q 327.62 76.46 330.69 72.94
  Z"
/>
<path fill="#002754" d="
  M 376.34 75.70
  Q 375.77 77.72 377.06 79.44
  Q 378.60 81.48 382.00 82.49
  Q 386.92 83.94 391.67 85.84
  Q 395.10 87.21 396.91 90.05
  Q 398.60 92.69 398.21 96.23
  Q 397.42 103.56 389.75 105.50
  Q 380.11 107.94 371.20 102.20
  Q 369.77 101.29 369.15 100.43
  Q 367.67 98.42 370.04 97.33
  A 2.73 2.73 46.9 0 1 372.50 97.41
  Q 380.25 101.58 386.24 101.16
  Q 390.67 100.85 392.35 97.36
  Q 393.28 95.43 392.42 93.62
  Q 391.51 91.70 389.44 90.81
  Q 386.53 89.56 381.15 87.82
  Q 376.01 86.15 374.29 84.85
  Q 370.68 82.11 370.78 77.68
  Q 370.90 72.43 375.23 69.20
  Q 379.45 66.06 385.53 66.77
  Q 390.49 67.36 395.97 69.96
  Q 397.75 70.80 397.42 72.74
  Q 397.16 74.28 395.68 74.64
  Q 394.78 74.86 393.42 74.30
  Q 388.92 72.44 385.75 71.75
  Q 381.88 70.91 378.51 73.01
  Q 376.79 74.08 376.34 75.70
  Z"
/>
<rect fill="#0aaddb" x="52.05" y="67.02" width="8.48" height="38.98" rx="3.55"/>
<path fill="#002754" d="
  M 310.36 99.69
  Q 307.66 102.79 305.44 103.94
  Q 296.45 108.58 288.78 104.03
  Q 284.74 101.64 283.32 98.00
  Q 281.65 93.73 283.94 89.19
  Q 286.68 83.76 293.46 82.81
  Q 302.02 81.63 309.66 83.09
  A 1.19 1.19 87.4 0 0 311.03 81.59
  Q 308.30 72.30 298.50 72.51
  Q 293.48 72.61 295.13 68.27
  A 0.98 0.94 2.0 0 1 295.79 67.68
  Q 301.12 66.22 306.25 68.50
  Q 313.06 71.53 315.48 77.74
  Q 316.75 81.00 316.75 89.92
  Q 316.75 96.01 316.75 102.38
  Q 316.75 104.31 315.12 105.34
  Q 313.64 106.28 312.17 105.03
  A 1.61 0.87 -88.3 0 1 311.75 104.20
  L 310.83 99.80
  Q 310.72 99.28 310.36 99.69
  Z
  M 289.94 90.19
  Q 287.28 94.98 290.24 98.25
  Q 291.99 100.17 294.83 100.85
  Q 297.50 101.48 300.30 100.77
  Q 307.68 98.89 310.73 90.41
  Q 311.64 87.90 309.07 87.18
  Q 303.14 85.50 296.02 86.67
  Q 293.90 87.02 292.62 87.70
  Q 290.77 88.68 289.94 90.19
  Z"
/>
<path fill="#002754" d="
  M 264.46 72.95
  Q 269.55 67.02 278.85 67.29
  Q 280.78 67.34 281.51 69.14
  Q 282.32 71.15 280.47 72.03
  Q 279.74 72.37 277.85 72.46
  Q 269.75 72.84 267.17 79.07
  Q 266.07 81.73 266.07 91.08
  Q 266.06 97.76 265.72 104.43
  A 0.89 0.85 79.3 0 1 265.24 105.17
  Q 262.65 106.42 261.16 104.78
  Q 260.25 103.77 260.16 101.47
  Q 259.93 95.59 260.25 84.75
  Q 260.46 77.61 264.46 72.95
  Z"
/>
</svg>
