<?xml version="1.0" encoding="UTF-8" standalone="no"?>
<!DOCTYPE svg PUBLIC "-//W3C//DTD SVG 1.1//EN" "http://www.w3.org/Graphics/SVG/1.1/DTD/svg11.dtd">
<svg xmlns="http://www.w3.org/2000/svg" version="1.1" viewBox="0 0 400 173">
<clipPath id="clipping-path-0">
<path d="
  M 0.00 0.00
  L 400.00 0.00
  L 400.00 173.00
  L 0.00 173.00
  L 0.00 0.00
  Z"/>
</clipPath>
<g stroke-width="2.0" fill="none" stroke-linecap="butt" clip-path="url(#clipping-path-0)">
<path stroke="#aa9ebd" vector-effect="non-scaling-stroke" d="
  M 78.01 84.83
  Q 85.58 80.72 84.76 71.75
  Q 84.22 65.83 79.12 62.93
  Q 74.84 60.49 71.50 60.50
  Q 57.59 60.55 43.69 60.44
  A 0.51 0.49 0.0 0 0 43.18 60.93
  L 43.00 113.44
  A 0.57 0.56 0.0 0 0 43.57 114.00
  Q 55.62 114.00 67.75 113.99
  Q 71.75 113.99 74.19 113.44
  Q 89.09 110.05 86.97 96.14
  Q 86.34 92.04 84.22 89.49
  Q 81.82 86.59 78.04 85.23
  Q 77.58 85.06 78.01 84.83"
/>
<path stroke="#aa9ebd" vector-effect="non-scaling-stroke" d="
  M 71.71 68.76
  Q 69.99 68.00 68.00 68.00
  Q 60.50 68.00 52.92 68.00
  A 0.67 0.67 0.0 0 0 52.25 68.67
  L 52.25 82.25
  A 0.50 0.50 -45.0 0 0 52.75 82.75
  Q 60.75 82.75 68.75 82.62
  Q 72.48 82.55 74.25 79.75
  Q 77.09 75.25 74.45 71.16
  Q 73.39 69.51 71.71 68.76"
/>
<path stroke="#aa9ebd" vector-effect="non-scaling-stroke" d="
  M 75.00 91.53
  Q 72.71 89.75 68.75 89.75
  Q 60.75 89.75 53.10 89.75
  A 0.85 0.85 0.0 0 0 52.25 90.60
  L 52.25 105.60
  A 0.88 0.87 -89.7 0 0 53.11 106.48
  Q 60.66 106.63 67.64 106.40
  Q 72.53 106.23 74.57 104.89
  Q 77.94 102.67 77.97 97.75
  Q 78.00 93.86 75.00 91.53"
/>
</g>
<path fill="#543c7a" d="
  M 109.9467 116.9704
  A 15.63 15.63 0.0 0 1 94.2894 132.5731
  L 33.3095 132.4667
  A 15.63 15.63 0.0 0 1 17.7068 116.8095
  L 17.8133 55.8096
  A 15.63 15.63 0.0 0 1 33.4706 40.2069
  L 94.4505 40.3133
  A 15.63 15.63 0.0 0 1 110.0532 55.9705
  L 109.9467 116.9704
  Z
  M 78.01 84.83
  Q 85.58 80.72 84.76 71.75
  Q 84.22 65.83 79.12 62.93
  Q 74.84 60.49 71.50 60.50
  Q 57.59 60.55 43.69 60.44
  A 0.51 0.49 0.0 0 0 43.18 60.93
  L 43.00 113.44
  A 0.57 0.56 0.0 0 0 43.57 114.00
  Q 55.62 114.00 67.75 113.99
  Q 71.75 113.99 74.19 113.44
  Q 89.09 110.05 86.97 96.14
  Q 86.34 92.04 84.22 89.49
  Q 81.82 86.59 78.04 85.23
  Q 77.58 85.06 78.01 84.83
  Z"
/>
<path fill="#ffffff" d="
  M 78.04 85.23
  Q 81.82 86.59 84.22 89.49
  Q 86.34 92.04 86.97 96.14
  Q 89.09 110.05 74.19 113.44
  Q 71.75 113.99 67.75 113.99
  Q 55.62 114.00 43.57 114.00
  A 0.57 0.56 -0.0 0 1 43.00 113.44
  L 43.18 60.93
  A 0.51 0.49 -0.0 0 1 43.69 60.44
  Q 57.59 60.55 71.50 60.50
  Q 74.84 60.49 79.12 62.93
  Q 84.22 65.83 84.76 71.75
  Q 85.58 80.72 78.01 84.83
  Q 77.58 85.06 78.04 85.23
  Z
  M 71.71 68.76
  Q 69.99 68.00 68.00 68.00
  Q 60.50 68.00 52.92 68.00
  A 0.67 0.67 0.0 0 0 52.25 68.67
  L 52.25 82.25
  A 0.50 0.50 -45.0 0 0 52.75 82.75
  Q 60.75 82.75 68.75 82.62
  Q 72.48 82.55 74.25 79.75
  Q 77.09 75.25 74.45 71.16
  Q 73.39 69.51 71.71 68.76
  Z
  M 75.00 91.53
  Q 72.71 89.75 68.75 89.75
  Q 60.75 89.75 53.10 89.75
  A 0.85 0.85 0.0 0 0 52.25 90.60
  L 52.25 105.60
  A 0.88 0.87 -89.7 0 0 53.11 106.48
  Q 60.66 106.63 67.64 106.40
  Q 72.53 106.23 74.57 104.89
  Q 77.94 102.67 77.97 97.75
  Q 78.00 93.86 75.00 91.53
  Z"
/>
<path fill="#523a78" d="
  M 155.48 83.92
  Q 161.28 86.13 162.50 91.25
  Q 164.66 100.30 156.19 105.19
  Q 153.38 106.81 147.00 106.78
  Q 139.25 106.75 130.81 106.75
  A 0.56 0.56 -0.0 0 1 130.25 106.19
  L 130.25 64.53
  A 1.01 1.01 -0.6 0 1 131.24 63.52
  Q 139.37 63.36 146.84 63.60
  Q 151.74 63.76 154.02 64.72
  Q 157.76 66.31 159.56 69.93
  Q 161.33 73.53 160.27 77.23
  Q 159.15 81.11 155.42 83.49
  Q 155.02 83.75 155.48 83.92
  Z
  M 153.75 71.11
  Q 151.89 69.29 150.24 69.07
  Q 143.36 68.13 136.44 68.65
  A 0.54 0.53 88.3 0 0 135.94 69.19
  L 135.94 81.06
  A 0.54 0.54 2.3 0 0 136.44 81.60
  Q 146.10 82.27 149.25 81.50
  Q 157.63 79.46 154.02 71.49
  Q 153.92 71.28 153.75 71.11
  Z
  M 154.37 88.76
  Q 153.11 87.64 151.45 87.37
  Q 144.36 86.23 136.43 86.89
  A 0.54 0.53 87.7 0 0 135.94 87.43
  L 135.94 101.06
  A 0.53 0.52 -88.3 0 0 136.43 101.59
  Q 143.22 102.00 149.99 101.42
  Q 155.63 100.93 156.66 95.48
  Q 157.42 91.49 154.37 88.76
  Z"
/>
<path fill="#523a78" d="
  M 243.56 80.05
  Q 243.47 88.19 243.49 96.33
  Q 243.50 99.79 243.60 100.15
  Q 244.21 102.58 247.65 102.24
  A 1.43 1.38 -5.0 0 1 249.22 103.51
  L 249.42 106.20
  A 0.65 0.60 -11.0 0 1 248.95 106.84
  Q 245.31 107.90 241.77 106.46
  Q 240.01 105.74 239.13 104.26
  Q 238.51 103.23 238.44 101.11
  Q 238.09 91.26 238.26 80.85
  A 1.42 1.41 84.2 0 0 236.54 79.44
  Q 233.69 80.06 234.53 76.21
  A 1.07 1.06 -77.7 0 1 235.79 75.40
  Q 238.90 76.06 238.25 73.25
  Q 237.85 71.53 238.47 68.05
  A 1.25 1.15 -13.4 0 1 238.99 67.28
  L 242.46 64.95
  Q 243.50 64.25 243.50 65.49
  L 243.50 74.63
  A 0.87 0.87 45.0 0 0 244.37 75.50
  Q 245.50 75.50 246.96 75.27
  Q 248.92 74.96 248.89 76.56
  Q 248.88 77.49 248.89 78.42
  Q 248.92 80.06 246.75 79.50
  Q 246.31 79.39 244.07 79.53
  A 0.54 0.52 -1.8 0 0 243.56 80.05
  Z"
/>
<path fill="#523a78" d="
  M 284.70 79.50
  L 282.49 79.63
  A 1.17 0.50 -10.1 0 1 281.62 79.43
  Q 281.05 78.82 281.31 77.95
  A 1.72 1.54 -46.2 0 0 281.34 77.03
  Q 280.88 75.16 283.83 75.58
  A 1.20 1.19 4.5 0 0 285.20 74.42
  L 285.30 68.56
  A 1.14 0.79 79.1 0 1 285.68 67.71
  L 289.77 64.90
  Q 290.51 64.38 290.53 65.38
  L 290.65 74.81
  A 0.56 0.55 -89.5 0 0 291.18 75.36
  L 295.20 75.57
  A 0.58 0.48 1.2 0 1 295.76 76.05
  L 295.77 78.95
  A 0.58 0.51 0.0 0 1 295.19 79.46
  L 291.04 79.48
  A 0.55 0.53 -0.6 0 0 290.50 80.01
  Q 290.50 88.07 290.50 95.92
  Q 290.50 96.03 290.39 98.06
  Q 290.11 102.92 295.25 102.32
  A 0.69 0.63 -13.6 0 1 295.95 102.71
  Q 296.62 104.43 296.34 106.26
  A 0.77 0.76 -3.6 0 1 295.77 106.89
  Q 291.80 107.98 288.05 106.18
  Q 285.53 104.98 285.49 102.27
  L 285.18 80.05
  A 0.55 0.45 88.5 0 0 284.70 79.50
  Z"
/>
<path fill="#543c7a" d="
  M 74.45 71.16
  Q 77.09 75.25 74.25 79.75
  Q 72.48 82.55 68.75 82.62
  Q 60.75 82.75 52.75 82.75
  A 0.50 0.50 45.0 0 1 52.25 82.25
  L 52.25 68.67
  A 0.67 0.67 -45.0 0 1 52.92 68.00
  Q 60.50 68.00 68.00 68.00
  Q 69.99 68.00 71.71 68.76
  Q 73.39 69.51 74.45 71.16
  Z"
/>
<path fill="#523a78" d="
  M 197.1209 93.9896
  A 13.18 13.18 0.0 0 1 184.0797 107.3069
  L 181.7398 107.3314
  A 13.18 13.18 0.0 0 1 168.4225 94.2901
  L 168.3591 88.2304
  A 13.18 13.18 0.0 0 1 181.4003 74.9131
  L 183.7402 74.8886
  A 13.18 13.18 0.0 0 1 197.0575 87.9299
  L 197.1209 93.9896
  Z
  M 184.10 79.47
  Q 176.48 78.03 174.08 86.77
  Q 172.18 93.70 175.62 99.00
  Q 177.63 102.09 181.09 102.82
  Q 186.27 103.91 189.52 99.69
  Q 191.10 97.65 191.49 94.83
  Q 191.80 92.56 191.75 89.50
  Q 191.69 85.45 189.72 82.76
  Q 187.83 80.18 184.10 79.47
  Z"
/>
<path fill="#523a78" d="
  M 230.8247 93.8635
  A 13.24 13.24 0.0 0 1 217.7475 107.2643
  L 215.3676 107.2933
  A 13.24 13.24 0.0 0 1 201.9669 94.2161
  L 201.8953 88.3565
  A 13.24 13.24 0.0 0 1 214.9725 74.9557
  L 217.3524 74.9267
  A 13.24 13.24 0.0 0 1 230.7531 88.0039
  L 230.8247 93.8635
  Z
  M 221.56 80.94
  Q 217.57 77.92 213.34 79.65
  Q 210.37 80.87 208.83 83.63
  Q 207.40 86.21 207.25 89.75
  Q 207.10 93.35 207.89 96.22
  Q 208.82 99.61 211.32 101.45
  Q 214.03 103.44 217.50 102.97
  Q 220.58 102.56 222.70 100.14
  Q 224.99 97.52 225.45 94.00
  Q 225.89 90.67 225.42 87.49
  Q 224.82 83.40 221.56 80.94
  Z"
/>
<path fill="#523a78" d="
  M 272.44 98.94
  Q 273.09 95.40 269.01 94.47
  Q 264.39 93.41 259.96 91.78
  Q 255.53 90.16 253.98 87.89
  Q 251.61 84.43 253.81 79.81
  Q 254.96 77.40 257.86 76.19
  Q 264.61 73.38 271.41 76.13
  Q 275.87 77.94 276.51 82.79
  A 0.94 0.78 -8.0 0 1 275.70 83.68
  L 272.29 84.21
  A 0.62 0.53 -12.7 0 1 271.63 83.86
  Q 270.17 79.69 266.43 79.25
  Q 264.42 79.01 262.58 79.17
  Q 260.39 79.37 258.99 80.97
  Q 257.61 82.57 258.35 84.28
  Q 259.12 86.06 261.56 86.69
  Q 269.97 88.85 273.44 90.31
  Q 276.56 91.63 277.55 94.71
  Q 278.40 97.36 277.45 100.28
  Q 276.01 104.67 271.19 106.44
  Q 265.77 108.44 260.15 106.94
  Q 254.13 105.34 252.14 98.26
  A 0.52 0.50 74.9 0 1 252.49 97.62
  L 256.44 96.64
  A 0.56 0.51 74.8 0 1 257.07 97.04
  Q 259.06 103.45 265.51 103.08
  Q 268.11 102.93 269.58 102.38
  Q 271.97 101.48 272.44 98.94
  Z"
/>
<path fill="#523a78" d="
  M 305.73 78.43
  Q 305.73 80.21 306.66 78.78
  Q 310.49 72.86 317.16 75.97
  A 1.00 0.97 22.2 0 1 317.69 77.19
  L 316.39 80.77
  A 0.53 0.52 19.1 0 1 315.72 81.08
  Q 309.73 78.91 307.56 83.15
  Q 306.60 85.05 306.40 90.12
  Q 306.08 98.01 306.26 106.24
  A 0.50 0.50 89.4 0 1 305.76 106.75
  L 301.67 106.75
  A 0.67 0.67 0.4 0 1 301.00 106.08
  L 301.06 76.06
  A 0.53 0.50 -90.0 0 1 301.56 75.53
  L 305.18 75.53
  A 0.55 0.53 0.0 0 1 305.73 76.06
  L 305.73 78.43
  Z"
/>
<path fill="#523a78" d="
  M 341.05 103.39
  Q 334.22 109.12 326.28 106.80
  Q 322.14 105.60 320.37 102.66
  Q 318.17 99.02 320.31 94.56
  Q 321.58 91.92 324.40 90.48
  Q 326.00 89.67 329.76 89.05
  Q 335.04 88.19 339.99 87.34
  A 1.50 1.49 85.6 0 0 341.23 85.89
  Q 341.28 83.37 340.30 81.77
  Q 339.42 80.34 337.06 79.60
  Q 332.21 78.09 328.31 80.31
  Q 326.57 81.31 325.58 84.45
  A 0.70 0.52 -75.8 0 1 324.95 84.96
  L 321.03 84.36
  A 0.58 0.48 -81.0 0 1 320.64 83.70
  Q 321.61 77.76 326.56 76.06
  Q 333.83 73.57 340.50 75.50
  Q 346.38 77.20 346.37 83.75
  Q 346.35 92.70 346.70 101.64
  Q 346.75 102.78 347.08 103.81
  Q 347.42 104.83 347.81 105.92
  A 0.46 0.45 -16.8 0 1 347.48 106.52
  Q 342.02 107.79 341.48 103.57
  Q 341.42 103.08 341.05 103.39
  Z
  M 325.48 96.92
  Q 324.26 101.12 327.70 102.60
  Q 329.79 103.50 332.88 103.09
  Q 341.99 101.90 341.05 91.74
  A 0.46 0.41 -8.5 0 0 340.51 91.38
  L 329.44 93.51
  Q 326.29 94.11 325.48 96.92
  Z"
/>
<path fill="#523a78" d="
  M 359.49 78.66
  Q 359.67 79.31 360.12 78.81
  Q 363.08 75.51 366.84 75.05
  Q 373.01 74.29 376.94 77.75
  Q 380.25 80.66 381.45 86.19
  Q 382.68 91.92 380.88 97.84
  Q 378.96 104.15 372.80 106.54
  Q 365.73 109.29 360.57 104.07
  Q 360.05 103.55 360.06 104.30
  L 360.21 117.68
  A 0.84 0.76 79.4 0 1 359.75 118.43
  Q 358.32 119.04 355.52 118.43
  A 0.98 0.98 -83.8 0 1 354.75 117.47
  L 354.75 76.06
  A 0.56 0.56 -0.0 0 1 355.31 75.50
  L 359.21 75.50
  A 0.80 0.80 -78.0 0 1 359.94 76.63
  Q 359.31 78.03 359.49 78.66
  Z
  M 367.8323 103.2668
  A 12.24 8.63 91.3 0 0 376.7378 91.2258
  A 12.24 8.63 91.3 0 0 368.3877 78.7932
  A 12.24 8.63 91.3 0 0 359.4822 90.8342
  A 12.24 8.63 91.3 0 0 367.8323 103.2668
  Z"
/>
<path fill="#543c7a" d="
  M 75.00 91.53
  Q 78.00 93.86 77.97 97.75
  Q 77.94 102.67 74.57 104.89
  Q 72.53 106.23 67.64 106.40
  Q 60.66 106.63 53.11 106.48
  A 0.88 0.87 -89.7 0 1 52.25 105.60
  L 52.25 90.60
  A 0.85 0.85 0.7 0 1 53.10 89.75
  Q 60.75 89.75 68.75 89.75
  Q 72.71 89.75 75.00 91.53
  Z"
/>
</svg>
