<?xml version="1.0" encoding="UTF-8" standalone="no"?>
<!DOCTYPE svg PUBLIC "-//W3C//DTD SVG 1.1//EN" "http://www.w3.org/Graphics/SVG/1.1/DTD/svg11.dtd">
<svg xmlns="http://www.w3.org/2000/svg" version="1.1" viewBox="0 0 400 173">
<clipPath id="clipping-path-0">
<path d="
  M 0.00 0.00
  L 400.00 0.00
  L 400.00 173.00
  L 0.00 173.00
  L 0.00 0.00
  Z"/>
</clipPath>
<g stroke-width="2.0" fill="none" stroke-linecap="butt" clip-path="url(#clipping-path-0)">
<path stroke="#f98c4a" vector-effect="non-scaling-stroke" d="
  M 69.50 64.21
  Q 65.55 70.80 62.75 77.96"
/>
<path stroke="#fe9a5b" vector-effect="non-scaling-stroke" d="
  M 62.75 77.96
  L 61.72 80.12
  Q 61.00 81.62 60.31 80.13
  L 50.96 60.00"
/>
<path stroke="#f98c4a" vector-effect="non-scaling-stroke" d="
  M 50.96 60.00
  Q 50.59 58.01 49.25 56.54"
/>
<path stroke="#f8d398" vector-effect="non-scaling-stroke" d="
  M 50.96 60.00
  Q 46.14 59.49 41.70 57.53
  Q 40.27 56.90 38.75 56.79"
/>
<path stroke="#f9e0af" vector-effect="non-scaling-stroke" d="
  M 38.75 56.79
  L 27.83 59.56
  A 1.58 1.44 -89.7 0 0 26.75 60.73
  L 20.34 90.69
  A 0.31 0.31 88.3 0 0 20.73 91.06
  L 32.25 87.71"
/>
<path stroke="#f8d398" vector-effect="non-scaling-stroke" d="
  M 32.25 87.71
  L 37.77 89.91
  A 0.39 0.33 17.6 0 0 38.28 89.70
  Q 40.43 79.84 42.39 70.07
  Q 42.51 69.45 42.74 68.97
  Q 44.02 66.26 44.22 69.62
  Q 44.26 70.20 44.15 70.87
  Q 42.67 79.85 40.67 88.73
  Q 40.15 91.04 43.72 92.25
  A 3.02 3.00 84.5 0 1 45.40 93.65
  Q 46.47 95.57 43.64 94.41
  Q 39.26 92.61 34.81 90.94
  Q 32.55 90.08 31.75 90.21"
/>
<path stroke="#f9e0af" vector-effect="non-scaling-stroke" d="
  M 31.75 90.21
  L 18.62 93.70
  A 1.09 1.06 -1.3 0 1 17.28 92.45
  L 24.01 62.33
  A 0.99 0.95 88.7 0 0 22.82 61.15
  L 17.61 62.70
  A 2.17 1.91 -89.8 0 0 16.25 64.23
  Q 11.34 85.09 6.70 106.00
  Q 6.60 106.45 5.84 108.23
  Q 5.04 110.08 6.97 110.79
  A 1.73 1.10 -31.8 0 0 7.91 110.80
  L 27.75 105.96"
/>
<path stroke="#f8d398" vector-effect="non-scaling-stroke" d="
  M 27.75 105.96
  Q 29.92 106.19 32.69 107.31
  Q 45.17 112.36 64.19 119.31
  Q 65.54 119.80 66.00 119.29"
/>
<path stroke="#f9e0af" vector-effect="non-scaling-stroke" d="
  M 66.00 119.29
  Q 71.57 117.71 77.13 116.08
  Q 77.17 116.07 79.42 115.64
  Q 81.98 115.15 82.24 112.54
  Q 82.43 110.55 82.44 110.48
  Q 86.62 88.19 90.94 65.92
  A 1.00 0.98 87.6 0 0 89.71 64.76
  L 77.00 68.50
  Q 74.19 69.33 73.94 70.19
  L 72.96 73.50"
/>
<path stroke="#f8d398" vector-effect="non-scaling-stroke" d="
  M 72.96 73.50
  Q 68.70 75.08 64.91 77.62
  Q 64.38 77.97 63.89 78.00
  Q 63.32 78.04 62.75 77.96"
/>
<path stroke="#feeec0" vector-effect="non-scaling-stroke" d="
  M 72.96 73.50
  Q 71.28 87.04 68.62 100.41
  A 0.51 0.36 -70.9 0 0 68.76 100.89
  L 69.00 101.04"
/>
<path stroke="#f4cf94" vector-effect="non-scaling-stroke" d="
  M 69.00 101.04
  Q 68.67 101.77 68.00 101.50
  Q 59.29 98.02 57.56 97.44
  Q 55.23 96.66 55.67 98.46
  A 0.97 0.96 -86.5 0 0 56.27 99.14
  L 68.46 103.75"
/>
<path stroke="#feeec0" vector-effect="non-scaling-stroke" d="
  M 68.46 103.75
  Q 66.83 111.25 65.53 118.81
  Q 65.49 119.05 65.59 119.17
  Q 65.73 119.33 66.00 119.29"
/>
<path stroke="#feeec0" vector-effect="non-scaling-stroke" d="
  M 27.75 105.96
  Q 28.55 105.82 29.07 105.31
  Q 29.47 104.92 29.61 104.05
  Q 30.55 97.95 31.97 91.95
  Q 31.98 91.89 32.26 91.21
  Q 32.53 90.53 31.75 90.21"
/>
<path stroke="#f6dcac" vector-effect="non-scaling-stroke" d="
  M 68.46 103.75
  L 78.24 100.33
  Q 79.91 99.74 80.18 98.15
  Q 82.14 86.64 83.95 75.49
  Q 83.99 75.27 84.24 74.15
  Q 84.73 72.06 82.98 73.05
  A 1.11 1.02 -11.8 0 0 82.45 73.79
  L 81.75 77.73
  A 2.01 1.86 -2.8 0 1 80.26 79.25
  L 75.53 80.39
  A 1.39 1.10 -75.7 0 0 74.77 80.97
  Q 73.83 82.44 75.22 82.70
  Q 75.78 82.80 76.75 82.51
  Q 78.56 81.96 80.35 81.77
  A 0.55 0.54 -87.9 0 1 80.94 82.42
  L 78.50 96.25
  A 2.42 1.97 87.9 0 1 77.16 98.03
  L 69.00 101.04"
/>
<path stroke="#feeec0" vector-effect="non-scaling-stroke" d="
  M 38.75 56.79
  Q 39.19 57.47 38.94 58.13
  Q 38.68 58.84 38.67 58.90
  Q 33.93 81.13 32.94 86.19
  Q 32.71 87.33 32.25 87.71"
/>
<path stroke="#ffa986" vector-effect="non-scaling-stroke" d="
  M 69.66 48.35
  A 8.59 8.59 0.0 0 0 61.07 39.76
  A 8.59 8.59 0.0 0 0 52.48 48.35
  A 8.59 8.59 0.0 0 0 61.07 56.94
  A 8.59 8.59 0.0 0 0 69.66 48.35"
/>
<path stroke="#a4bbba" vector-effect="non-scaling-stroke" d="
  M 53.58 95.69
  A 2.94 2.94 0.0 0 0 50.64 92.75
  A 2.94 2.94 0.0 0 0 47.70 95.69
  A 2.94 2.94 0.0 0 0 50.64 98.63
  A 2.94 2.94 0.0 0 0 53.58 95.69"
/>
</g>
<path fill="#ff530d" d="
  M 69.50 64.21
  Q 65.55 70.80 62.75 77.96
  L 61.72 80.12
  Q 61.00 81.62 60.31 80.13
  L 50.96 60.00
  Q 50.59 58.01 49.25 56.54
  Q 49.67 55.99 49.24 55.25
  Q 46.11 49.84 47.69 44.65
  Q 49.17 39.76 53.64 36.80
  Q 58.28 33.73 64.25 35.00
  Q 69.95 36.21 73.15 42.03
  Q 76.57 48.26 73.44 54.68
  Q 71.46 58.73 69.52 62.79
  Q 69.16 63.54 69.50 64.21
  Z
  M 69.66 48.35
  A 8.59 8.59 0.0 0 0 61.07 39.76
  A 8.59 8.59 0.0 0 0 52.48 48.35
  A 8.59 8.59 0.0 0 0 61.07 56.94
  A 8.59 8.59 0.0 0 0 69.66 48.35
  Z"
/>
<circle fill="#ffffff" cx="61.07" cy="48.35" r="8.59"/>
<path fill="#f3c587" d="
  M 49.25 56.54
  Q 50.59 58.01 50.96 60.00
  Q 46.14 59.49 41.70 57.53
  Q 40.27 56.90 38.75 56.79
  L 27.83 59.56
  A 1.58 1.44 -89.7 0 0 26.75 60.73
  L 20.34 90.69
  A 0.31 0.31 88.3 0 0 20.73 91.06
  L 32.25 87.71
  L 37.77 89.91
  A 0.39 0.33 17.6 0 0 38.28 89.70
  Q 40.43 79.84 42.39 70.07
  Q 42.51 69.45 42.74 68.97
  Q 44.02 66.26 44.22 69.62
  Q 44.26 70.20 44.15 70.87
  Q 42.67 79.85 40.67 88.73
  Q 40.15 91.04 43.72 92.25
  A 3.02 3.00 84.5 0 1 45.40 93.65
  Q 46.47 95.57 43.64 94.41
  Q 39.26 92.61 34.81 90.94
  Q 32.55 90.08 31.75 90.21
  L 18.62 93.70
  A 1.09 1.06 -1.3 0 1 17.28 92.45
  L 24.01 62.33
  A 0.99 0.95 88.7 0 0 22.82 61.15
  L 17.61 62.70
  A 2.17 1.91 -89.8 0 0 16.25 64.23
  Q 11.34 85.09 6.70 106.00
  Q 6.60 106.45 5.84 108.23
  Q 5.04 110.08 6.97 110.79
  A 1.73 1.10 -31.8 0 0 7.91 110.80
  L 27.75 105.96
  Q 29.92 106.19 32.69 107.31
  Q 45.17 112.36 64.19 119.31
  Q 65.54 119.80 66.00 119.29
  Q 71.57 117.71 77.13 116.08
  Q 77.17 116.07 79.42 115.64
  Q 81.98 115.15 82.24 112.54
  Q 82.43 110.55 82.44 110.48
  Q 86.62 88.19 90.94 65.92
  A 1.00 0.98 87.6 0 0 89.71 64.76
  L 77.00 68.50
  Q 74.19 69.33 73.94 70.19
  L 72.96 73.50
  Q 68.70 75.08 64.91 77.62
  Q 64.38 77.97 63.89 78.00
  Q 63.32 78.04 62.75 77.96
  Q 65.55 70.80 69.50 64.21
  Q 73.26 66.26 75.75 65.50
  Q 84.92 62.70 94.58 60.42
  Q 96.52 59.96 95.20 61.46
  Q 94.40 62.36 94.12 63.93
  Q 89.50 90.35 84.57 117.73
  A 1.54 1.53 -2.4 0 1 83.44 118.95
  L 64.63 123.79
  A 2.24 2.17 -40.7 0 1 63.27 123.71
  L 29.14 110.17
  A 2.80 2.67 48.7 0 0 27.56 110.03
  L 2.60 115.27
  A 0.53 0.53 1.0 0 1 1.98 114.63
  L 14.88 60.94
  A 1.25 1.25 88.8 0 1 15.75 60.03
  Q 26.24 57.07 35.85 54.49
  Q 35.89 54.48 37.64 53.91
  Q 40.63 52.93 43.60 54.28
  Q 46.37 55.54 49.25 56.54
  Z"
/>
<path fill="#fffbd7" d="
  M 38.75 56.79
  Q 39.19 57.47 38.94 58.13
  Q 38.68 58.84 38.67 58.90
  Q 33.93 81.13 32.94 86.19
  Q 32.71 87.33 32.25 87.71
  L 20.73 91.06
  A 0.31 0.31 88.3 0 1 20.34 90.69
  L 26.75 60.73
  A 1.58 1.44 -89.7 0 1 27.83 59.56
  L 38.75 56.79
  Z"
/>
<path fill="#fce1a8" d="
  M 38.75 56.79
  Q 40.27 56.90 41.70 57.53
  Q 46.14 59.49 50.96 60.00
  L 60.31 80.13
  Q 61.00 81.62 61.72 80.12
  L 62.75 77.96
  Q 63.32 78.04 63.89 78.00
  Q 64.38 77.97 64.91 77.62
  Q 68.70 75.08 72.96 73.50
  Q 71.28 87.04 68.62 100.41
  A 0.51 0.36 -70.9 0 0 68.76 100.89
  L 69.00 101.04
  Q 68.67 101.77 68.00 101.50
  Q 59.29 98.02 57.56 97.44
  Q 55.23 96.66 55.67 98.46
  A 0.97 0.96 -86.5 0 0 56.27 99.14
  L 68.46 103.75
  Q 66.83 111.25 65.53 118.81
  Q 65.49 119.05 65.59 119.17
  Q 65.73 119.33 66.00 119.29
  Q 65.54 119.80 64.19 119.31
  Q 45.17 112.36 32.69 107.31
  Q 29.92 106.19 27.75 105.96
  Q 28.55 105.82 29.07 105.31
  Q 29.47 104.92 29.61 104.05
  Q 30.55 97.95 31.97 91.95
  Q 31.98 91.89 32.26 91.21
  Q 32.53 90.53 31.75 90.21
  Q 32.55 90.08 34.81 90.94
  Q 39.26 92.61 43.64 94.41
  Q 46.47 95.57 45.40 93.65
  A 3.02 3.00 84.5 0 0 43.72 92.25
  Q 40.15 91.04 40.67 88.73
  Q 42.67 79.85 44.15 70.87
  Q 44.26 70.20 44.22 69.62
  Q 44.02 66.26 42.74 68.97
  Q 42.51 69.45 42.39 70.07
  Q 40.43 79.84 38.28 89.70
  A 0.39 0.33 17.6 0 1 37.77 89.91
  L 32.25 87.71
  Q 32.71 87.33 32.94 86.19
  Q 33.93 81.13 38.67 58.90
  Q 38.68 58.84 38.94 58.13
  Q 39.19 57.47 38.75 56.79
  Z
  M 53.58 95.69
  A 2.94 2.94 0.0 0 0 50.64 92.75
  A 2.94 2.94 0.0 0 0 47.70 95.69
  A 2.94 2.94 0.0 0 0 50.64 98.63
  A 2.94 2.94 0.0 0 0 53.58 95.69
  Z"
/>
<path fill="#f1620a" d="
  M 153.48 80.53
  Q 153.46 78.98 152.40 80.16
  L 138.68 95.44
  A 0.41 0.41 45.5 0 1 138.06 95.43
  L 124.40 80.17
  Q 123.25 78.88 123.25 80.62
  L 123.25 107.36
  A 0.85 0.81 -89.7 0 1 122.43 108.21
  L 113.04 108.03
  A 0.59 0.55 -89.5 0 1 112.50 107.44
  L 112.50 58.75
  A 0.90 0.80 77.2 0 1 112.92 57.99
  Q 114.27 57.24 115.70 57.58
  Q 116.72 57.81 117.82 59.07
  Q 128.03 70.66 138.31 82.19
  A 0.26 0.26 0.0 0 0 138.69 82.19
  Q 148.88 70.63 159.01 59.03
  Q 160.82 56.95 162.91 57.51
  A 1.48 1.48 7.7 0 1 164.00 58.94
  L 164.00 107.59
  A 0.66 0.66 -45.0 0 1 163.34 108.25
  L 154.63 108.25
  A 0.92 0.90 89.7 0 1 153.73 107.34
  L 153.48 80.53
  Z"
/>
<path fill="#f1620a" d="
  M 184.88 101.27
  L 182.89 106.81
  A 2.16 2.05 -79.7 0 1 180.93 108.25
  L 172.15 108.25
  A 0.54 0.54 11.0 0 1 171.65 107.51
  L 191.24 58.39
  A 1.42 1.42 -79.0 0 1 192.56 57.50
  L 200.50 57.50
  A 1.92 1.91 79.2 0 1 202.28 58.71
  L 221.99 107.70
  A 0.40 0.40 79.1 0 1 221.62 108.25
  L 212.34 108.25
  A 1.42 1.42 78.9 0 1 211.03 107.37
  L 208.57 101.39
  A 1.39 1.29 77.5 0 0 207.34 100.54
  L 185.57 100.79
  A 0.74 0.72 9.5 0 0 184.88 101.27
  Z
  M 196.67 72.39
  L 189.63 89.68
  A 0.42 0.41 11.2 0 0 190.02 90.25
  L 203.76 90.25
  A 0.54 0.53 79.1 0 0 204.25 89.51
  L 197.55 72.41
  Q 197.12 71.30 196.67 72.39
  Z"
/>
<path fill="#f1620a" d="
  M 253.06 57.69
  Q 256.95 57.78 260.08 58.63
  Q 266.24 60.31 268.44 65.81
  Q 270.45 70.84 269.04 76.81
  Q 267.44 83.60 261.69 85.69
  Q 256.52 87.56 251.00 87.39
  Q 246.25 87.25 241.04 87.25
  A 1.34 1.30 -89.8 0 0 239.74 88.58
  L 239.58 107.56
  A 0.56 0.51 -88.9 0 1 239.06 108.11
  L 230.24 108.06
  A 0.57 0.51 89.9 0 1 229.74 107.50
  Q 229.32 84.26 229.49 61.02
  Q 229.50 60.91 229.39 59.50
  Q 229.23 57.24 231.48 57.39
  Q 232.95 57.49 233.02 57.49
  Q 240.97 57.40 253.06 57.69
  Z
  M 255.81 67.44
  Q 251.08 66.98 240.57 67.30
  A 0.58 0.52 -0.1 0 0 240.00 67.81
  L 239.83 76.61
  A 1.21 1.12 0.5 0 0 241.04 77.75
  Q 248.13 77.75 254.00 77.88
  Q 257.90 77.97 259.45 75.22
  Q 260.69 73.05 260.06 70.65
  Q 259.30 67.78 255.81 67.44
  Z"
/>
<path fill="#f1620a" d="
  M 301.20 91.52
  Q 300.54 89.35 298.44 88.31
  Q 295.25 86.73 290.56 86.44
  Q 288.13 86.29 284.60 84.76
  Q 281.37 83.37 279.45 81.46
  Q 275.01 77.02 275.99 70.98
  Q 276.82 65.87 281.08 62.30
  Q 287.20 57.18 296.50 57.75
  Q 305.54 58.31 311.33 63.84
  A 0.54 0.48 44.2 0 1 311.38 64.57
  L 305.47 70.54
  A 0.62 0.56 40.6 0 1 304.68 70.56
  Q 299.18 66.39 293.50 67.25
  Q 290.82 67.66 289.13 68.82
  Q 287.37 70.05 287.01 72.04
  Q 286.55 74.57 289.31 75.94
  Q 292.85 77.69 298.69 78.31
  Q 300.46 78.50 304.72 80.49
  Q 308.36 82.18 310.39 85.32
  Q 312.26 88.21 312.45 92.13
  Q 312.86 100.32 305.24 104.99
  Q 299.63 108.43 293.00 108.35
  Q 282.96 108.22 274.51 101.52
  A 0.86 0.83 41.5 0 1 274.41 100.26
  L 280.13 94.58
  A 0.60 0.56 41.6 0 1 280.89 94.56
  Q 286.66 98.94 294.56 98.56
  Q 298.89 98.36 300.70 95.34
  Q 301.81 93.50 301.20 91.52
  Z"
/>
<path fill="#fffbd7" d="
  M 31.75 90.21
  Q 32.53 90.53 32.26 91.21
  Q 31.98 91.89 31.97 91.95
  Q 30.55 97.95 29.61 104.05
  Q 29.47 104.92 29.07 105.31
  Q 28.55 105.82 27.75 105.96
  L 7.91 110.80
  A 1.73 1.10 -31.8 0 1 6.97 110.79
  Q 5.04 110.08 5.84 108.23
  Q 6.60 106.45 6.70 106.00
  Q 11.34 85.09 16.25 64.23
  A 2.17 1.91 -89.8 0 1 17.61 62.70
  L 22.82 61.15
  A 0.99 0.95 88.7 0 1 24.01 62.33
  L 17.28 92.45
  A 1.09 1.06 -1.3 0 0 18.62 93.70
  L 31.75 90.21
  Z"
/>
<ellipse fill="#f1620a" cx="0.00" cy="0.00" transform="translate(345.19,66.40) rotate(-0.4)" rx="5.12" ry="4.81"/>
<path fill="#fffbd7" d="
  M 66.00 119.29
  Q 65.73 119.33 65.59 119.17
  Q 65.49 119.05 65.53 118.81
  Q 66.83 111.25 68.46 103.75
  L 78.24 100.33
  Q 79.91 99.74 80.18 98.15
  Q 82.14 86.64 83.95 75.49
  Q 83.99 75.27 84.24 74.15
  Q 84.73 72.06 82.98 73.05
  A 1.11 1.02 -11.8 0 0 82.45 73.79
  L 81.75 77.73
  A 2.01 1.86 -2.8 0 1 80.26 79.25
  L 75.53 80.39
  A 1.39 1.10 -75.7 0 0 74.77 80.97
  Q 73.83 82.44 75.22 82.70
  Q 75.78 82.80 76.75 82.51
  Q 78.56 81.96 80.35 81.77
  A 0.55 0.54 -87.9 0 1 80.94 82.42
  L 78.50 96.25
  A 2.42 1.97 87.9 0 1 77.16 98.03
  L 69.00 101.04
  L 68.76 100.89
  A 0.51 0.36 -70.9 0 1 68.62 100.41
  Q 71.28 87.04 72.96 73.50
  L 73.94 70.19
  Q 74.19 69.33 77.00 68.50
  L 89.71 64.76
  A 1.00 0.98 87.6 0 1 90.94 65.92
  Q 86.62 88.19 82.44 110.48
  Q 82.43 110.55 82.24 112.54
  Q 81.98 115.15 79.42 115.64
  Q 77.17 116.07 77.13 116.08
  Q 71.57 117.71 66.00 119.29
  Z"
/>
<path fill="#ecbd80" d="
  M 68.46 103.75
  L 56.27 99.14
  A 0.97 0.96 -86.5 0 1 55.67 98.46
  Q 55.23 96.66 57.56 97.44
  Q 59.29 98.02 68.00 101.50
  Q 68.67 101.77 69.00 101.04
  L 77.16 98.03
  A 2.42 1.97 87.9 0 0 78.50 96.25
  L 80.94 82.42
  A 0.55 0.54 -87.9 0 0 80.35 81.77
  Q 78.56 81.96 76.75 82.51
  Q 75.78 82.80 75.22 82.70
  Q 73.83 82.44 74.77 80.97
  A 1.39 1.10 -75.7 0 1 75.53 80.39
  L 80.26 79.25
  A 2.01 1.86 -2.8 0 0 81.75 77.73
  L 82.45 73.79
  A 1.11 1.02 -11.8 0 1 82.98 73.05
  Q 84.73 72.06 84.24 74.15
  Q 83.99 75.27 83.95 75.49
  Q 82.14 86.64 80.18 98.15
  Q 79.91 99.74 78.24 100.33
  L 68.46 103.75
  Z"
/>
<rect fill="#f1620a" x="340.40" y="74.27" width="9.60" height="33.98" rx="0.81"/>
<path fill="#f1620a" d="
  M 366.46 95.78
  Q 367.79 99.95 372.75 100.26
  Q 377.39 100.56 381.18 98.15
  A 0.98 0.97 -38.5 0 1 382.40 98.28
  L 386.73 102.61
  A 0.82 0.82 -46.0 0 1 386.75 103.75
  Q 384.28 106.39 380.78 107.37
  Q 375.86 108.74 371.00 108.07
  Q 365.81 107.35 362.19 104.48
  Q 357.05 100.40 356.50 93.25
  Q 355.45 79.68 367.31 75.31
  Q 370.85 74.01 375.17 74.50
  Q 379.32 74.98 382.44 77.08
  Q 390.10 82.27 389.42 93.83
  A 0.97 0.97 -88.4 0 1 388.45 94.75
  L 367.22 94.75
  A 0.80 0.79 -8.8 0 0 366.46 95.78
  Z
  M 368.20 84.39
  Q 364.64 88.21 369.25 88.11
  Q 374.00 88.00 378.76 88.00
  Q 381.31 88.00 379.84 85.92
  Q 375.95 80.44 370.30 82.90
  Q 369.10 83.43 368.20 84.39
  Z"
/>
<circle fill="#4b95cb" cx="50.64" cy="95.69" r="2.94"/>
<circle fill="#f1620a" cx="325.54" cy="103.48" r="4.97"/>
</svg>
