<?xml version="1.0" encoding="UTF-8" standalone="no"?>
<!DOCTYPE svg PUBLIC "-//W3C//DTD SVG 1.1//EN" "http://www.w3.org/Graphics/SVG/1.1/DTD/svg11.dtd">
<svg xmlns="http://www.w3.org/2000/svg" version="1.1" viewBox="0 0 400 173">
<clipPath id="clipping-path-0">
<path d="
  M 0.00 0.00
  L 400.00 0.00
  L 400.00 173.00
  L 0.00 173.00
  L 0.00 0.00
  Z"/>
</clipPath>
<g stroke-width="2.0" fill="none" stroke-linecap="butt" clip-path="url(#clipping-path-0)">
<path stroke="#ec5926" vector-effect="non-scaling-stroke" d="
  M 63.75 130.04
  L 63.99 141.17
  A 1.00 0.96 81.8 0 0 65.21 142.12
  L 95.36 133.90
  A 0.85 0.84 85.2 0 0 95.99 133.15
  L 103.10 51.33
  A 1.17 1.16 -87.5 0 0 101.94 50.06
  L 64.66 50.00
  A 0.66 0.66 -45.0 0 0 64.00 50.66
  Q 64.00 54.78 64.00 58.44
  Q 64.00 58.46 63.65 60.49
  Q 63.37 62.16 66.00 61.96"
/>
<path stroke="#ec5926" vector-effect="non-scaling-stroke" d="
  M 64.00 86.21
  L 63.54 74.00"
/>
<path stroke="#7bb0d0" vector-effect="non-scaling-stroke" d="
  M 197.50 62.29
  L 180.50 62.29"
/>
<path stroke="#053a5b" vector-effect="non-scaling-stroke" d="
  M 180.50 62.29
  Q 179.76 62.04 179.21 62.50"
/>
<path stroke="#7bb0d0" vector-effect="non-scaling-stroke" d="
  M 176.25 73.79
  Q 176.56 74.59 177.26 74.44
  Q 178.13 74.26 178.26 74.26
  Q 187.39 74.42 196.50 73.94
  Q 197.32 73.89 197.54 73.25"
/>
<path stroke="#7bb0d0" vector-effect="non-scaling-stroke" d="
  M 197.71 76.00
  Q 197.47 74.99 196.44 75.44
  Q 193.56 76.68 190.71 78.00"
/>
<path stroke="#71a6c7" vector-effect="non-scaling-stroke" d="
  M 190.71 78.00
  L 171.50 86.21"
/>
<path stroke="#7bb0d0" vector-effect="non-scaling-stroke" d="
  M 171.50 86.21
  Q 170.35 86.14 170.50 87.75
  Q 170.91 92.00 171.35 97.51
  A 1.08 1.07 87.4 0 0 172.43 98.50
  Q 185.22 98.45 196.94 98.56
  Q 197.66 99.14 197.79 98.25"
/>
<path stroke="#1c8fc9" vector-effect="non-scaling-stroke" d="
  M 198.29 98.75
  Q 198.17 111.87 198.25 114.75
  Q 198.29 116.38 197.75 117.21"
/>
<path stroke="#1c8fc9" vector-effect="non-scaling-stroke" d="
  M 198.50 130.29
  Q 197.85 136.12 198.51 141.94
  A 0.43 0.41 79.2 0 0 199.04 142.31
  L 229.52 133.65
  A 0.76 0.74 85.0 0 0 230.05 133.00
  L 237.36 50.95
  A 0.82 0.82 2.5 0 0 236.54 50.06
  L 199.60 49.94
  A 1.47 1.38 -89.2 0 0 198.21 51.38
  L 198.04 62.00"
/>
<path stroke="#e2e2e2" vector-effect="non-scaling-stroke" d="
  M 171.50 86.21
  Q 172.56 86.75 173.75 86.75
  Q 183.21 86.75 192.64 86.05
  Q 193.40 85.99 193.80 85.73
  Q 194.69 85.14 193.71 84.25
  Q 193.33 83.91 193.18 83.46
  Q 192.75 82.12 191.65 81.28
  A 1.38 0.67 28.3 0 1 191.10 80.52
  L 190.71 78.00"
/>
<path stroke="#cfd0d0" stroke-opacity="0.855" vector-effect="non-scaling-stroke" d="
  M 177.50 73.46
  Q 180.14 72.79 177.54 72.00"
/>
<path stroke="#cfd0d0" stroke-opacity="0.855" vector-effect="non-scaling-stroke" d="
  M 177.46 71.75
  Q 177.94 70.24 177.18 67.67
  A 1.31 1.31 -18.6 0 1 177.98 66.07
  Q 179.17 65.62 179.50 63.75"
/>
<path stroke="#767675" vector-effect="non-scaling-stroke" d="
  M 179.50 63.75
  Q 180.31 63.27 180.50 62.29"
/>
<path stroke="#ecc933" vector-effect="non-scaling-stroke" d="
  M 331.19 96.31
  A 1.65 0.70 12.6 0 1 332.50 97.25
  L 332.74 141.34
  A 0.88 0.87 81.9 0 0 333.85 142.18
  L 363.83 133.71
  A 0.74 0.73 -5.4 0 0 364.36 133.08
  L 371.75 50.23
  A 0.38 0.38 -88.0 0 0 371.36 49.81
  Q 356.87 50.27 342.32 49.82
  Q 340.77 49.77 338.18 49.91
  Q 336.34 50.00 334.02 50.00
  A 1.35 1.32 0.9 0 0 332.66 51.29
  L 332.44 61.43
  A 0.53 0.50 -0.6 0 1 331.93 61.92
  Q 330.00 62.00 330.00 64.50
  Q 330.00 79.50 329.81 94.50
  Q 329.79 95.94 331.19 96.31"
/>
<path stroke="#cfd0d0" stroke-opacity="0.855" vector-effect="non-scaling-stroke" d="
  M 180.28 66.15
  Q 180.76 70.56 184.97 69.42
  Q 187.21 68.82 186.07 66.80
  Q 185.15 65.18 180.74 65.60
  A 0.50 0.50 85.0 0 0 180.28 66.15"
/>
</g>
<path fill="#000000" d="
  M 38.95 25.95
  Q 33.14 24.69 34.63 29.55
  A 1.27 1.26 -14.3 0 1 33.67 31.16
  Q 30.07 31.89 29.35 30.40
  Q 29.25 30.21 29.24 27.07
  Q 29.22 21.70 29.30 16.32
  A 0.94 0.82 78.4 0 1 29.74 15.54
  Q 30.51 15.12 31.41 15.14
  Q 32.16 15.16 33.08 15.13
  Q 35.37 15.07 34.55 18.61
  Q 34.09 20.57 36.28 20.56
  L 38.56 20.54
  A 0.78 0.64 8.4 0 0 39.26 20.12
  Q 39.78 18.75 39.56 16.44
  Q 39.42 14.86 41.12 15.06
  Q 42.11 15.18 42.89 15.11
  Q 45.58 14.87 45.40 17.50
  Q 45.27 19.43 45.27 19.51
  Q 45.36 25.17 45.09 30.81
  A 0.61 0.52 -88.3 0 1 44.57 31.39
  L 40.31 31.41
  A 0.82 0.66 89.1 0 1 39.65 30.61
  L 39.56 26.54
  A 0.77 0.57 7.4 0 0 38.95 25.95
  Z"
/>
<path fill="#000000" d="
  M 47.38 19.79
  Q 47.06 19.08 47.32 18.22
  Q 47.47 17.72 47.39 17.26
  Q 46.97 14.92 49.36 15.11
  Q 51.06 15.25 51.15 15.25
  Q 56.23 15.25 61.61 15.25
  A 0.63 0.60 0.4 0 1 62.24 15.86
  L 62.21 20.20
  A 0.54 0.47 -87.6 0 1 61.70 20.75
  L 58.73 20.50
  A 1.09 0.93 0.4 0 0 57.53 21.51
  Q 57.80 24.04 57.79 26.73
  Q 57.77 30.04 57.69 30.24
  Q 57.01 31.96 53.17 31.17
  A 1.15 1.15 -84.2 0 1 52.25 30.04
  L 52.25 21.58
  A 0.97 0.97 -8.7 0 0 50.99 20.66
  Q 50.07 20.94 48.86 20.76
  Q 47.74 20.59 47.38 19.79
  Z"
/>
<path fill="#000000" d="
  M 77.28 24.35
  Q 75.80 25.55 74.70 28.50
  A 0.51 0.51 -55.3 0 1 73.84 28.66
  Q 71.72 26.24 71.19 25.29
  Q 69.85 22.88 70.05 26.25
  Q 70.10 27.16 70.06 28.08
  Q 70.05 28.50 70.19 29.90
  Q 70.39 31.76 68.33 31.65
  Q 68.06 31.64 66.17 31.64
  Q 64.48 31.64 64.62 29.81
  Q 64.74 28.28 64.73 28.17
  Q 64.63 22.05 64.91 15.94
  A 0.61 0.52 -88.3 0 1 65.43 15.36
  L 69.82 15.36
  A 1.03 0.89 71.8 0 1 70.62 15.84
  L 73.14 19.83
  A 0.83 0.81 44.4 0 0 74.55 19.83
  L 76.78 15.98
  A 1.06 0.82 -71.8 0 1 77.56 15.45
  L 82.25 15.35
  A 0.84 0.74 89.7 0 1 83.00 16.19
  L 83.07 30.58
  A 0.89 0.81 -89.7 0 1 82.25 31.47
  L 78.18 31.38
  A 0.57 0.56 -89.5 0 1 77.63 30.81
  L 77.63 24.56
  Q 77.63 24.07 77.28 24.35
  Z"
/>
<path fill="#000000" d="
  M 92.06 26.14
  L 97.06 25.99
  A 1.51 1.35 83.2 0 1 98.46 27.23
  Q 99.13 30.72 97.62 31.41
  Q 97.43 31.50 94.37 31.50
  Q 90.52 31.50 86.49 31.50
  A 0.99 0.99 -85.4 0 1 85.50 30.51
  Q 85.50 24.63 85.50 18.54
  Q 85.50 18.46 85.37 16.97
  Q 85.21 15.12 86.90 15.11
  Q 88.58 15.10 89.10 15.10
  Q 90.08 15.11 90.86 15.68
  A 0.93 0.81 -71.0 0 1 91.19 16.50
  Q 90.62 21.13 91.47 25.69
  A 0.59 0.54 -5.1 0 0 92.06 26.14
  Z"
/>
<path fill="#000000" d="
  M 178.79 22.06
  L 178.77 27.02
  A 1.00 0.98 0.0 0 0 179.77 28.00
  L 185.41 28.00
  A 1.08 0.94 -0.5 0 1 186.49 28.92
  L 186.59 32.71
  A 0.65 0.48 -0.4 0 1 185.94 33.20
  L 174.14 33.20
  A 0.80 0.79 -0.0 0 1 173.34 32.41
  L 173.23 17.00
  A 0.53 0.52 90.0 0 1 173.75 16.47
  L 186.24 16.27
  A 0.59 0.51 88.4 0 1 186.76 16.84
  L 186.88 20.55
  A 0.86 0.82 88.7 0 1 186.07 21.44
  L 179.31 21.52
  A 0.54 0.53 89.5 0 0 178.79 22.06
  Z"
/>
<path fill="#000000" d="
  M 199.51 20.67
  Q 197.08 20.13 198.81 21.93
  Q 200.57 23.76 202.13 25.61
  Q 202.21 25.71 203.62 27.16
  Q 205.51 29.10 205.09 31.72
  A 1.81 1.79 -85.1 0 1 203.31 33.24
  L 190.56 33.20
  A 0.94 0.88 -15.0 0 1 189.78 32.78
  Q 188.72 31.07 189.48 29.14
  A 0.85 0.70 -76.4 0 1 190.19 28.61
  L 195.75 28.75
  Q 197.27 28.79 196.25 27.75
  Q 193.25 24.69 190.26 21.64
  Q 189.43 20.81 189.32 19.98
  Q 189.21 19.24 189.37 18.48
  Q 189.46 18.05 189.33 17.53
  Q 188.99 16.26 190.75 16.25
  Q 197.47 16.21 204.18 16.30
  A 0.68 0.46 1.3 0 1 204.86 16.78
  L 204.72 19.98
  A 0.82 0.68 -2.2 0 1 203.99 20.64
  Q 200.72 20.93 199.51 20.67
  Z"
/>
<path fill="#000000" d="
  M 216.86 21.21
  Q 219.02 24.11 221.68 26.57
  Q 224.13 28.83 223.47 32.42
  A 0.99 0.95 -84.3 0 1 222.52 33.23
  L 208.94 33.09
  A 0.80 0.79 -10.7 0 1 208.22 32.61
  Q 207.50 30.91 208.03 29.15
  A 0.75 0.65 -80.3 0 1 208.69 28.61
  L 214.22 28.75
  Q 215.74 28.78 214.76 27.76
  Q 212.06 24.94 209.18 22.33
  Q 207.30 20.63 207.94 16.92
  A 0.80 0.80 4.7 0 1 208.73 16.25
  L 222.69 16.30
  A 0.64 0.50 0.1 0 1 223.32 16.79
  L 223.41 20.22
  A 0.61 0.52 -0.5 0 1 222.80 20.75
  L 217.06 20.80
  Q 216.55 20.80 216.86 21.21
  Z"
/>
<path fill="#000000" d="
  M 324.88 16.97
  A 0.79 0.74 -86.0 0 1 325.62 16.28
  L 329.18 16.26
  A 1.08 1.04 87.9 0 1 330.22 17.26
  Q 330.77 25.16 330.19 32.53
  A 0.79 0.78 -87.6 0 1 329.41 33.25
  L 318.17 33.25
  A 1.25 1.10 -0.0 0 1 316.92 32.15
  L 316.94 27.55
  A 0.82 0.61 -10.1 0 1 317.54 26.91
  Q 319.95 26.20 322.07 27.29
  Q 323.38 27.96 323.93 27.87
  Q 325.29 27.67 324.88 25.48
  Q 324.22 21.97 324.88 16.97
  Z"
/>
<path fill="#000000" d="
  M 342.15 22.00
  Q 344.54 24.16 346.80 26.45
  Q 349.39 29.07 348.34 32.71
  A 0.68 0.67 8.0 0 1 347.69 33.19
  L 334.48 33.25
  A 1.26 1.23 83.7 0 1 333.26 32.25
  Q 332.46 28.39 335.00 28.45
  Q 337.00 28.50 339.02 28.50
  Q 340.63 28.50 339.49 27.36
  Q 337.06 24.94 334.43 22.59
  Q 332.43 20.79 333.10 17.51
  A 1.58 1.57 -84.1 0 1 334.64 16.25
  L 347.81 16.25
  A 0.63 0.58 0.0 0 1 348.44 16.83
  L 348.40 20.07
  A 0.66 0.55 -4.0 0 1 347.82 20.63
  Q 345.76 20.89 342.50 20.50
  Q 341.56 20.39 341.70 21.24
  Q 341.76 21.64 342.15 22.00
  Z"
/>
<path fill="#e54c25" d="
  M 104.56 42.17
  Q 108.13 42.17 111.12 41.87
  A 0.73 0.73 89.4 0 1 111.92 42.66
  L 103.37 138.78
  A 1.76 1.72 -5.5 0 1 102.10 140.28
  L 65.97 150.29
  Q 64.20 150.78 62.54 150.32
  L 25.58 140.07
  A 1.33 1.31 -85.3 0 1 24.62 138.92
  L 16.00 42.74
  A 0.85 0.84 87.8 0 1 16.85 41.82
  Q 60.56 42.16 104.56 42.17
  Z
  M 66.00 61.96
  L 34.56 62.06
  A 0.47 0.46 -2.2 0 0 34.09 62.56
  L 36.96 97.10
  A 1.27 1.26 88.0 0 0 38.21 98.27
  L 77.38 98.49
  A 1.11 1.05 2.6 0 1 78.48 99.63
  L 77.26 113.18
  A 0.77 0.75 -5.9 0 1 76.72 113.83
  Q 71.74 115.37 66.68 116.65
  Q 64.20 117.28 61.80 116.75
  Q 56.50 115.60 51.40 113.73
  A 0.89 0.75 9.2 0 1 50.83 113.07
  L 50.00 104.99
  A 0.76 0.66 86.7 0 0 49.33 104.31
  L 38.31 104.30
  A 0.48 0.47 -2.2 0 0 37.83 104.81
  L 39.23 122.84
  A 0.76 0.71 5.9 0 0 39.78 123.48
  L 63.75 130.04
  L 63.99 141.17
  A 1.00 0.96 81.8 0 0 65.21 142.12
  L 95.36 133.90
  A 0.85 0.84 85.2 0 0 95.99 133.15
  L 103.10 51.33
  A 1.17 1.16 -87.5 0 0 101.94 50.06
  L 64.66 50.00
  A 0.66 0.66 -45.0 0 0 64.00 50.66
  Q 64.00 54.78 64.00 58.44
  Q 64.00 58.46 63.65 60.49
  Q 63.37 62.16 66.00 61.96
  Z"
/>
<path fill="#0a74b5" d="
  M 234.32 41.75
  Q 239.67 41.64 245.51 42.08
  A 0.78 0.77 -85.7 0 1 246.23 42.93
  L 237.64 139.27
  A 0.90 0.89 85.3 0 1 236.98 140.05
  L 199.73 150.33
  Q 198.19 150.75 196.66 150.32
  L 160.38 140.16
  A 2.00 1.98 5.3 0 1 158.92 138.42
  L 150.41 43.27
  A 1.40 1.40 87.5 0 1 151.80 41.75
  Q 188.19 41.82 225.29 41.93
  Q 225.34 41.93 234.32 41.75
  Z
  M 198.04 62.00
  Q 197.87 62.34 197.50 62.29
  L 180.50 62.29
  Q 179.76 62.04 179.21 62.50
  L 168.94 62.39
  A 0.50 0.50 87.4 0 0 168.44 62.94
  L 169.35 73.57
  A 0.67 0.61 2.0 0 0 169.93 74.13
  Q 173.11 74.51 176.25 73.79
  Q 176.56 74.59 177.26 74.44
  Q 178.13 74.26 178.26 74.26
  Q 187.39 74.42 196.50 73.94
  Q 197.32 73.89 197.54 73.25
  Q 198.54 74.44 197.71 76.00
  Q 197.47 74.99 196.44 75.44
  Q 193.56 76.68 190.71 78.00
  L 171.50 86.21
  Q 170.35 86.14 170.50 87.75
  Q 170.91 92.00 171.35 97.51
  A 1.08 1.07 87.4 0 0 172.43 98.50
  Q 185.22 98.45 196.94 98.56
  Q 197.66 99.14 197.79 98.25
  Q 198.14 98.40 198.29 98.75
  Q 198.17 111.87 198.25 114.75
  Q 198.29 116.38 197.75 117.21
  Q 193.42 116.30 189.19 115.03
  Q 189.07 115.00 187.28 114.62
  Q 184.55 114.04 184.61 111.26
  Q 184.63 109.83 184.52 108.75
  Q 184.41 107.60 184.56 106.20
  A 1.51 1.46 -87.2 0 0 183.10 104.53
  L 172.69 104.65
  A 0.50 0.49 -2.7 0 0 172.20 105.18
  L 173.62 122.82
  A 0.76 0.71 5.9 0 0 174.17 123.46
  L 198.50 130.29
  Q 197.85 136.12 198.51 141.94
  A 0.43 0.41 79.2 0 0 199.04 142.31
  L 229.52 133.65
  A 0.76 0.74 85.0 0 0 230.05 133.00
  L 237.36 50.95
  A 0.82 0.82 2.5 0 0 236.54 50.06
  L 199.60 49.94
  A 1.47 1.38 -89.2 0 0 198.21 51.38
  L 198.04 62.00
  Z"
/>
<path fill="#dab92c" d="
  M 378.94 61.57
  Q 375.50 99.79 371.89 139.15
  A 1.17 1.15 -5.5 0 1 371.05 140.16
  L 334.10 150.40
  Q 332.43 150.86 330.74 150.39
  L 294.21 140.24
  A 1.24 1.23 5.4 0 1 293.30 139.15
  L 284.68 43.21
  A 1.34 1.34 87.4 0 1 286.01 41.75
  L 379.72 41.94
  A 0.80 0.80 -88.0 0 1 380.52 42.80
  Q 379.77 52.29 378.94 61.57
  Z
  M 331.19 96.31
  A 1.65 0.70 12.6 0 1 332.50 97.25
  L 332.74 141.34
  A 0.88 0.87 81.9 0 0 333.85 142.18
  L 363.83 133.71
  A 0.74 0.73 -5.4 0 0 364.36 133.08
  L 371.75 50.23
  A 0.38 0.38 -88.0 0 0 371.36 49.81
  Q 356.87 50.27 342.32 49.82
  Q 340.77 49.77 338.18 49.91
  Q 336.34 50.00 334.02 50.00
  A 1.35 1.32 0.9 0 0 332.66 51.29
  L 332.44 61.43
  A 0.53 0.50 -0.6 0 1 331.93 61.92
  Q 330.00 62.00 330.00 64.50
  Q 330.00 79.50 329.81 94.50
  Q 329.79 95.94 331.19 96.31
  Z
  M 316.52 113.19
  L 315.51 104.81
  A 0.58 0.57 86.6 0 0 314.94 104.30
  L 306.82 104.27
  A 0.91 0.90 87.7 0 0 305.91 105.26
  L 307.36 122.44
  A 1.24 1.19 5.7 0 0 308.26 123.50
  L 328.92 129.23
  A 0.46 0.46 7.7 0 0 329.50 128.79
  L 329.44 62.56
  A 0.53 0.51 -89.4 0 0 328.94 62.03
  L 319.49 61.81
  A 1.29 1.24 89.5 0 0 318.22 63.15
  L 319.98 113.50
  A 0.63 0.58 83.4 0 1 319.52 114.13
  Q 318.23 114.41 317.01 113.90
  A 0.91 0.78 -84.0 0 1 316.52 113.19
  Z"
/>
<path fill="#2ea9dd" d="
  M 198.50 130.29
  L 222.45 123.54
  A 0.87 0.87 84.8 0 0 223.09 122.77
  L 226.15 87.06
  A 0.47 0.46 -87.7 0 0 225.69 86.55
  L 200.82 86.67
  A 0.86 0.51 -4.7 0 1 200.03 86.28
  Q 199.93 85.92 200.48 85.71
  Q 202.28 85.02 203.94 84.07
  Q 205.94 82.93 207.35 82.41
  Q 217.36 78.70 227.05 74.21
  A 0.92 0.82 81.9 0 0 227.53 73.49
  L 228.51 62.65
  A 0.60 0.57 -87.3 0 0 227.94 62.00
  L 198.04 62.00
  L 198.21 51.38
  A 1.47 1.38 -89.2 0 1 199.60 49.94
  L 236.54 50.06
  A 0.82 0.82 2.5 0 1 237.36 50.95
  L 230.05 133.00
  A 0.76 0.74 85.0 0 1 229.52 133.65
  L 199.04 142.31
  A 0.43 0.41 79.2 0 1 198.51 141.94
  Q 197.85 136.12 198.50 130.29
  Z"
/>
<path fill="#fed83a" d="
  M 331.19 96.31
  Q 329.79 95.94 329.81 94.50
  Q 330.00 79.50 330.00 64.50
  Q 330.00 62.00 331.93 61.92
  A 0.53 0.50 -0.6 0 0 332.44 61.43
  L 332.66 51.29
  A 1.35 1.32 0.9 0 1 334.02 50.00
  Q 336.34 50.00 338.18 49.91
  Q 340.77 49.77 342.32 49.82
  Q 356.87 50.27 371.36 49.81
  A 0.38 0.38 -88.0 0 1 371.75 50.23
  L 364.36 133.08
  A 0.74 0.73 -5.4 0 1 363.83 133.71
  L 333.85 142.18
  A 0.88 0.87 81.9 0 1 332.74 141.34
  L 332.50 97.25
  A 1.65 0.70 12.6 0 0 331.19 96.31
  Z
  M 346.99 99.25
  L 345.76 112.31
  A 2.19 2.18 -5.0 0 1 344.16 114.21
  L 335.34 116.62
  A 0.84 0.82 82.2 0 0 334.75 117.42
  L 334.75 128.82
  A 0.41 0.41 -8.1 0 0 335.27 129.21
  L 355.73 123.53
  A 1.71 1.68 -5.6 0 0 356.97 122.05
  L 360.02 87.00
  A 0.73 0.71 2.9 0 0 359.30 86.23
  L 347.43 86.09
  A 0.53 0.52 0.6 0 1 346.91 85.57
  L 346.78 74.95
  A 0.98 0.94 -0.3 0 1 347.76 74.00
  L 360.50 74.00
  A 0.96 0.95 -88.4 0 0 361.45 73.09
  L 362.08 62.51
  A 0.48 0.48 -88.3 0 0 361.60 62.00
  L 335.60 62.00
  A 0.85 0.85 0.2 0 0 334.75 62.85
  L 334.75 97.91
  A 0.57 0.54 0.0 0 0 335.32 98.45
  L 346.35 98.49
  A 0.70 0.65 -87.2 0 1 346.99 99.25
  Z"
/>
<path fill="#f26527" d="
  M 63.75 130.04
  L 88.32 123.45
  A 0.74 0.73 85.5 0 0 88.86 122.81
  L 91.90 86.81
  A 0.46 0.45 -87.7 0 0 91.45 86.31
  L 64.00 86.21
  L 63.54 74.00
  L 92.25 73.75
  A 0.64 0.64 -83.1 0 0 92.87 73.26
  Q 94.06 68.04 93.84 62.69
  A 0.53 0.53 88.9 0 0 93.31 62.18
  L 66.00 61.96
  Q 63.37 62.16 63.65 60.49
  Q 64.00 58.46 64.00 58.44
  Q 64.00 54.78 64.00 50.66
  A 0.66 0.66 -45.0 0 1 64.66 50.00
  L 101.94 50.06
  A 1.17 1.16 -87.5 0 1 103.10 51.33
  L 95.99 133.15
  A 0.85 0.84 85.2 0 1 95.36 133.90
  L 65.21 142.12
  A 1.00 0.96 81.8 0 1 63.99 141.17
  L 63.75 130.04
  Z"
/>
<path fill="#ebebea" d="
  M 197.50 62.29
  Q 199.14 67.78 197.54 73.25
  Q 197.32 73.89 196.50 73.94
  Q 187.39 74.42 178.26 74.26
  Q 178.13 74.26 177.26 74.44
  Q 176.56 74.59 176.25 73.79
  Q 176.79 73.39 177.50 73.46
  Q 180.14 72.79 177.54 72.00
  L 177.46 71.75
  Q 177.94 70.24 177.18 67.67
  A 1.31 1.31 -18.6 0 1 177.98 66.07
  Q 179.17 65.62 179.50 63.75
  Q 180.31 63.27 180.50 62.29
  L 197.50 62.29
  Z
  M 180.28 66.15
  Q 180.76 70.56 184.97 69.42
  Q 187.21 68.82 186.07 66.80
  Q 185.15 65.18 180.74 65.60
  A 0.50 0.50 85.0 0 0 180.28 66.15
  Z"
/>
<path fill="#000000" d="
  M 180.50 62.29
  Q 180.31 63.27 179.50 63.75
  Q 179.64 63.04 179.21 62.50
  Q 179.76 62.04 180.50 62.29
  Z"
/>
<path fill="#a8a9ac" fill-opacity="0.710" d="
  M 179.50 63.75
  Q 179.17 65.62 177.98 66.07
  A 1.31 1.31 -18.6 0 0 177.18 67.67
  Q 177.94 70.24 177.46 71.75
  Q 175.42 69.58 175.74 66.78
  Q 175.91 65.33 176.91 64.58
  Q 177.99 63.78 179.50 63.75
  Z"
/>
<path fill="#a8a9ac" fill-opacity="0.710" d="
  M 180.28 66.15
  A 0.50 0.50 85.0 0 1 180.74 65.60
  Q 185.15 65.18 186.07 66.80
  Q 187.21 68.82 184.97 69.42
  Q 180.76 70.56 180.28 66.15
  Z"
/>
<path fill="#a8a9ac" fill-opacity="0.710" d="
  M 177.54 72.00
  Q 180.14 72.79 177.50 73.46
  Q 178.00 72.76 177.54 72.00
  Z"
/>
<path fill="#e54c25" d="
  M 63.54 74.00
  L 64.00 86.21
  L 48.98 86.25
  A 0.99 0.99 88.2 0 1 47.99 85.32
  L 47.21 74.73
  A 0.68 0.68 88.0 0 1 47.89 74.00
  L 63.54 74.00
  Z"
/>
<path fill="#ebebea" d="
  M 197.71 76.00
  Q 198.91 87.11 197.79 98.25
  Q 197.66 99.14 196.94 98.56
  Q 185.22 98.45 172.43 98.50
  A 1.08 1.07 87.4 0 1 171.35 97.51
  Q 170.91 92.00 170.50 87.75
  Q 170.35 86.14 171.50 86.21
  Q 172.56 86.75 173.75 86.75
  Q 183.21 86.75 192.64 86.05
  Q 193.40 85.99 193.80 85.73
  Q 194.69 85.14 193.71 84.25
  Q 193.33 83.91 193.18 83.46
  Q 192.75 82.12 191.65 81.28
  A 1.38 0.67 28.3 0 1 191.10 80.52
  L 190.71 78.00
  Q 193.56 76.68 196.44 75.44
  Q 197.47 74.99 197.71 76.00
  Z"
/>
<path fill="#d8d8d9" d="
  M 190.71 78.00
  L 191.10 80.52
  A 1.38 0.67 28.3 0 0 191.65 81.28
  Q 192.75 82.12 193.18 83.46
  Q 193.33 83.91 193.71 84.25
  Q 194.69 85.14 193.80 85.73
  Q 193.40 85.99 192.64 86.05
  Q 183.21 86.75 173.75 86.75
  Q 172.56 86.75 171.50 86.21
  L 190.71 78.00
  Z"
/>
<path fill="#2ea9dd" d="
  M 197.75 117.21
  Q 198.29 116.38 198.25 114.75
  Q 198.17 111.87 198.29 98.75
  L 212.04 98.53
  A 0.76 0.75 -88.2 0 1 212.80 99.35
  L 211.73 113.09
  A 1.19 1.14 86.1 0 1 210.85 114.14
  L 197.75 117.21
  Z"
/>
</svg>
