<?xml version="1.0" encoding="UTF-8" standalone="no"?>
<!DOCTYPE svg PUBLIC "-//W3C//DTD SVG 1.1//EN" "http://www.w3.org/Graphics/SVG/1.1/DTD/svg11.dtd">
<svg xmlns="http://www.w3.org/2000/svg" version="1.1" viewBox="0 0 400 173">
<path fill="#01d6fc" d="
  M 33.95 104.69
  Q 19.51 101.02 9.94 91.81
  Q 0.63 82.86 5.50 73.96
  Q 8.52 68.44 17.10 63.21
  Q 24.71 58.56 33.74 56.12
  A 1.19 1.18 -15.7 0 0 34.57 54.65
  Q 31.80 44.82 32.44 34.19
  Q 32.74 29.24 34.18 25.18
  Q 35.88 20.39 39.27 17.88
  Q 42.86 15.21 47.53 15.27
  Q 50.80 15.31 55.64 17.20
  Q 67.33 21.77 76.52 30.89
  A 0.68 0.68 0.0 0 0 77.48 30.89
  Q 84.93 23.48 93.75 19.05
  Q 102.28 14.77 108.41 15.46
  Q 115.25 16.23 118.51 22.60
  Q 120.58 26.63 121.25 33.81
  Q 122.24 44.40 119.39 54.51
  A 1.49 1.48 15.7 0 0 120.43 56.35
  Q 129.86 58.89 137.64 63.90
  Q 145.96 69.25 148.65 75.22
  Q 152.82 84.44 142.94 92.69
  Q 133.58 100.50 120.05 104.67
  A 0.52 0.52 -15.4 0 0 119.69 105.30
  Q 123.13 118.88 120.75 131.75
  Q 119.99 135.84 116.94 139.98
  Q 113.10 145.19 106.50 145.25
  Q 99.37 145.32 91.22 140.35
  Q 83.92 135.91 77.93 129.80
  A 0.79 0.79 -43.9 0 0 76.83 129.78
  Q 71.43 134.81 65.04 139.08
  Q 57.73 143.96 49.00 144.99
  Q 43.51 145.63 39.57 142.89
  Q 36.29 140.60 34.30 135.58
  Q 31.99 129.74 32.25 123.00
  Q 32.61 113.50 34.33 105.30
  A 0.52 0.52 -77.2 0 0 33.95 104.69
  Z
  M 72.05 35.45
  Q 62.84 25.96 51.23 22.32
  Q 47.47 21.15 45.18 21.76
  Q 41.84 22.64 40.37 26.34
  Q 38.67 30.63 38.51 35.25
  Q 38.22 44.27 40.70 53.76
  A 0.54 0.53 76.5 0 0 41.33 54.15
  Q 49.80 52.27 59.08 51.37
  A 2.53 2.52 -75.4 0 0 60.93 50.28
  Q 65.69 43.30 72.06 36.56
  A 0.80 0.80 -45.5 0 0 72.05 35.45
  Z
  M 86.94 30.94
  Q 83.52 33.64 81.82 35.62
  A 0.61 0.55 46.9 0 0 81.83 36.37
  L 93.39 50.66
  A 1.32 1.21 72.7 0 0 94.18 51.12
  L 112.69 54.09
  A 0.57 0.55 12.2 0 0 113.32 53.70
  Q 116.38 41.96 114.44 29.56
  Q 113.77 25.33 110.94 23.09
  Q 108.55 21.21 104.65 21.68
  Q 99.11 22.35 94.30 25.48
  Q 91.63 27.22 86.94 30.94
  Z
  M 82.79 47.16
  L 77.29 40.54
  A 0.47 0.46 -45.4 0 0 76.57 40.55
  L 68.77 50.03
  Q 68.38 50.50 68.99 50.50
  Q 76.42 50.50 82.92 50.50
  Q 83.33 50.50 84.07 50.59
  Q 86.23 50.87 84.43 49.05
  Q 84.05 48.67 82.79 47.16
  Z
  M 89.33 57.17
  Q 76.78 56.16 64.10 57.24
  A 1.14 1.13 14.1 0 0 63.26 57.74
  Q 56.25 68.18 50.62 79.57
  A 1.56 1.53 -46.0 0 0 50.63 80.95
  Q 55.96 91.34 63.18 102.62
  A 1.87 1.87 74.9 0 0 64.65 103.47
  Q 76.28 104.01 89.26 103.47
  A 1.82 1.81 -74.6 0 0 90.70 102.65
  Q 97.95 91.45 103.37 80.58
  A 1.04 1.03 -45.9 0 0 103.36 79.65
  Q 97.85 68.97 90.85 58.09
  A 1.99 1.99 77.8 0 0 89.33 57.17
  Z
  M 47.26 72.37
  L 55.15 58.86
  Q 55.68 57.95 54.68 58.12
  L 43.29 60.07
  A 0.95 0.90 75.0 0 0 42.61 61.32
  L 46.61 72.32
  Q 46.87 73.04 47.26 72.37
  Z
  M 111.20 60.27
  L 99.47 58.12
  Q 98.04 57.86 98.80 59.17
  L 106.21 71.86
  Q 106.94 73.10 107.41 71.79
  L 111.43 60.70
  A 0.33 0.31 -74.4 0 0 111.20 60.27
  Z
  M 11.44 76.44
  Q 8.76 80.99 12.31 85.19
  Q 16.34 89.95 20.96 92.57
  Q 27.61 96.35 35.76 98.81
  A 0.57 0.55 -71.0 0 0 36.43 98.47
  L 43.29 80.71
  A 1.27 1.05 -50.2 0 0 43.29 79.80
  Q 39.52 71.48 36.54 62.36
  A 0.54 0.54 -16.9 0 0 35.88 62.01
  Q 31.11 63.32 26.95 65.12
  Q 21.54 67.47 18.51 69.38
  Q 13.87 72.29 11.44 76.44
  Z
  M 138.81 72.44
  Q 130.24 65.42 118.62 62.26
  A 1.20 1.14 -71.2 0 0 117.25 62.98
  L 110.61 79.61
  A 1.54 1.35 -49.7 0 0 110.63 80.81
  Q 114.86 89.42 117.52 98.05
  A 0.62 0.61 73.2 0 0 118.28 98.46
  Q 129.65 95.16 138.35 88.33
  Q 141.81 85.61 143.00 82.75
  Q 144.41 79.36 142.47 76.34
  Q 141.24 74.43 138.81 72.44
  Z
  M 106.39 88.31
  L 98.68 101.67
  Q 98.14 102.62 99.18 102.44
  L 111.35 100.38
  A 0.44 0.43 -15.3 0 0 111.69 99.80
  L 107.41 88.37
  Q 106.99 87.26 106.39 88.31
  Z
  M 43.04 100.55
  L 55.02 102.58
  Q 55.82 102.72 55.39 101.98
  L 47.49 88.45
  Q 47.24 88.02 47.01 88.44
  Q 44.37 93.36 42.62 99.86
  A 0.56 0.54 -77.4 0 0 43.04 100.55
  Z
  M 81.92 125.30
  Q 90.37 133.73 101.45 138.03
  Q 108.23 140.66 111.78 136.68
  Q 113.97 134.23 114.90 128.29
  Q 116.60 117.51 113.57 106.79
  A 0.55 0.54 -12.3 0 0 112.95 106.40
  L 94.25 109.43
  A 1.26 1.24 13.9 0 0 93.46 109.90
  L 81.89 124.54
  A 0.59 0.56 -48.7 0 0 81.92 125.30
  Z
  M 53.57 108.66
  Q 47.73 108.02 41.24 106.58
  A 0.57 0.56 13.1 0 0 40.57 106.99
  Q 37.76 117.85 38.98 128.72
  Q 39.32 131.83 40.61 134.67
  Q 42.53 138.90 47.25 139.00
  Q 52.29 139.11 58.70 135.47
  Q 66.16 131.23 72.39 125.34
  A 0.54 0.52 49.2 0 0 72.43 124.62
  L 60.76 110.23
  A 2.46 2.35 73.2 0 0 59.19 109.34
  Q 56.04 108.93 53.57 108.66
  Z
  M 77.31 119.73
  Q 81.51 115.97 85.20 110.34
  Q 85.48 109.91 84.96 109.92
  L 69.08 110.00
  Q 68.56 110.00 68.88 110.40
  L 76.59 119.70
  A 0.51 0.48 -40.8 0 0 77.31 119.73
  Z"
/>
<path fill="#07d7fb" d="
  M 209.56 53.19
  Q 217.03 58.86 215.78 69.47
  Q 214.21 82.81 201.14 85.22
  A 0.68 0.68 67.9 0 0 200.70 86.27
  L 216.34 109.66
  Q 216.83 110.40 215.92 110.39
  L 208.28 110.34
  A 1.08 0.96 -14.9 0 1 207.41 109.90
  L 192.45 86.48
  A 0.95 0.89 72.6 0 0 191.68 86.04
  L 180.44 86.16
  A 0.52 0.52 -45.0 0 0 179.92 86.68
  L 179.95 109.73
  A 0.52 0.50 -90.0 0 1 179.45 110.25
  L 172.77 110.25
  A 0.52 0.52 -0.0 0 1 172.25 109.73
  L 172.25 49.50
  A 0.50 0.50 -45.0 0 1 172.75 49.00
  Q 185.00 49.00 197.25 49.05
  Q 204.14 49.07 209.56 53.19
  Z
  M 200.52 56.76
  Q 197.66 55.83 193.75 55.75
  Q 187.09 55.62 180.44 55.91
  A 0.54 0.53 88.9 0 0 179.94 56.44
  L 179.82 78.69
  A 0.50 0.50 -45.0 0 0 180.32 79.19
  Q 188.66 79.29 196.99 79.00
  Q 203.71 78.77 206.56 73.56
  Q 210.53 66.31 205.93 60.58
  Q 203.71 57.80 200.52 56.76
  Z"
/>
<path fill="#07d7fb" d="
  M 382.46 105.12
  Q 384.86 105.75 387.42 103.79
  A 0.63 0.58 -29.2 0 1 388.37 104.02
  L 389.89 108.26
  A 0.72 0.64 -28.8 0 1 389.61 109.04
  Q 384.73 112.55 378.72 110.94
  Q 373.64 109.58 372.50 104.75
  Q 371.77 101.66 371.83 97.25
  Q 372.00 85.13 372.00 72.66
  A 0.93 0.80 0.0 0 0 371.07 71.86
  L 365.43 71.88
  A 0.58 0.56 89.5 0 1 364.87 71.31
  L 364.81 66.51
  A 0.55 0.51 -0.0 0 1 365.36 66.00
  L 371.46 66.00
  A 0.54 0.54 0.0 0 0 372.00 65.46
  L 372.00 54.27
  A 0.52 0.52 -89.9 0 1 372.52 53.75
  L 378.15 53.75
  A 0.93 0.89 89.7 0 1 379.04 54.67
  L 379.15 65.31
  A 0.56 0.55 90.0 0 0 379.69 65.86
  L 387.02 65.97
  A 0.99 0.94 0.3 0 1 388.00 66.91
  L 388.00 71.34
  A 0.73 0.69 -0.4 0 1 387.28 72.03
  L 379.69 72.14
  A 0.56 0.52 -90.0 0 0 379.18 72.69
  Q 378.86 85.34 379.00 98.00
  Q 379.03 100.49 379.63 102.28
  Q 380.40 104.57 382.46 105.12
  Z"
/>
<path fill="#07d7fb" d="
  M 230.11 91.06
  Q 231.20 101.25 239.62 104.52
  Q 244.47 106.40 249.50 105.28
  Q 254.23 104.23 258.82 100.86
  A 1.02 0.92 -35.8 0 1 260.20 101.01
  L 262.07 103.68
  A 1.54 1.34 -35.2 0 1 261.58 105.67
  Q 249.50 114.11 237.42 110.02
  Q 231.15 107.89 227.42 103.12
  Q 223.49 98.11 222.72 91.25
  Q 221.85 83.51 225.52 76.68
  Q 230.83 66.79 240.86 65.21
  Q 247.67 64.13 253.39 66.78
  Q 259.55 69.64 262.77 76.39
  Q 265.75 82.63 265.69 89.41
  A 1.13 1.12 1.0 0 1 264.53 90.52
  Q 247.29 89.97 230.56 90.55
  A 0.46 0.46 86.6 0 0 230.11 91.06
  Z
  M 250.87 72.04
  Q 246.30 69.65 241.31 70.84
  Q 236.51 71.99 233.55 75.57
  Q 230.53 79.21 229.92 84.74
  A 0.46 0.45 -86.6 0 0 230.37 85.25
  L 258.35 85.25
  A 0.47 0.46 -2.8 0 0 258.82 84.74
  Q 258.40 80.42 256.46 77.20
  Q 254.48 73.93 250.87 72.04
  Z"
/>
<path fill="#07d7fb" d="
  M 277.74 105.77
  Q 274.36 101.70 274.34 96.79
  Q 274.33 92.08 277.11 88.17
  Q 280.85 82.89 288.25 82.27
  Q 296.10 81.62 302.33 86.11
  Q 302.44 86.19 303.39 87.16
  Q 304.55 88.34 304.46 84.15
  Q 304.45 83.19 304.52 82.23
  Q 305.27 72.78 295.90 71.29
  Q 286.64 69.82 280.13 76.49
  A 0.55 0.54 50.1 0 1 279.28 76.41
  L 276.78 72.67
  A 0.62 0.60 50.8 0 1 276.85 71.90
  Q 284.92 63.94 296.50 64.97
  Q 307.93 65.98 310.53 74.75
  Q 311.17 76.90 311.27 89.82
  Q 311.35 99.38 311.67 108.93
  Q 311.74 111.08 309.27 110.50
  Q 308.01 110.21 306.76 110.50
  Q 303.84 111.16 304.27 108.22
  Q 304.87 104.21 302.75 106.75
  Q 302.22 107.39 301.72 107.73
  Q 296.06 111.61 289.50 111.50
  Q 282.41 111.38 277.74 105.77
  Z
  M 283.69 90.69
  Q 280.15 95.02 281.93 99.99
  Q 282.70 102.15 284.22 103.55
  Q 285.82 105.03 288.02 105.68
  Q 296.34 108.14 303.20 102.47
  Q 304.50 101.40 304.50 99.70
  L 304.50 93.88
  Q 304.50 91.97 302.98 90.81
  Q 296.70 86.05 289.02 87.60
  Q 285.64 88.29 283.69 90.69
  Z"
/>
<path fill="#07d7fb" d="
  M 328.48 104.02
  Q 322.71 97.54 322.52 88.75
  Q 322.27 77.01 330.06 70.31
  Q 337.44 63.98 347.25 64.96
  Q 355.34 65.76 360.36 71.69
  A 0.97 0.87 48.6 0 1 360.35 72.95
  L 356.90 76.21
  A 0.53 0.46 47.4 0 1 356.18 76.13
  Q 350.46 69.60 342.00 71.25
  Q 334.54 72.70 331.50 80.14
  Q 328.05 88.55 331.50 96.50
  Q 333.13 100.26 336.47 102.61
  Q 339.62 104.84 343.55 105.24
  Q 349.71 105.88 354.62 101.58
  Q 354.67 101.53 355.71 100.28
  Q 356.65 99.14 357.67 100.64
  Q 357.96 101.06 358.36 101.32
  Q 359.72 102.18 360.52 103.57
  A 0.77 0.71 -41.4 0 1 360.43 104.40
  Q 356.30 109.47 349.82 110.85
  Q 336.99 113.59 328.48 104.02
  Z"
/>
<circle fill="#01d6fc" cx="76.90" cy="80.09" r="13.00"/>
</svg>
