<?xml version="1.0" encoding="UTF-8" standalone="no"?>
<!DOCTYPE svg PUBLIC "-//W3C//DTD SVG 1.1//EN" "http://www.w3.org/Graphics/SVG/1.1/DTD/svg11.dtd">
<svg xmlns="http://www.w3.org/2000/svg" version="1.1" viewBox="0 0 400 173">
<clipPath id="clipping-path-0">
<path d="
  M 0.00 0.00
  L 400.00 0.00
  L 400.00 173.00
  L 0.00 173.00
  L 0.00 0.00
  Z"/>
</clipPath>
<g stroke-width="2.0" fill="none" stroke-linecap="butt" clip-path="url(#clipping-path-0)">
<path stroke="#089f57" vector-effect="non-scaling-stroke" d="
  M 111.96 61.00
  Q 106.27 66.00 98.89 65.93
  Q 97.11 65.91 94.78 66.31
  Q 92.70 66.66 90.56 66.39
  A 0.81 0.68 -67.8 0 0 89.84 66.77
  Q 89.52 67.25 89.00 67.50
  A 1.45 0.57 -23.5 0 0 88.00 68.50
  Q 88.11 69.09 87.54 69.00"
/>
<path stroke="#76aa4b" vector-effect="non-scaling-stroke" d="
  M 108.79 108.25
  Q 109.04 105.97 107.75 103.75
  Q 101.63 93.19 95.27 82.77
  Q 95.22 82.69 94.98 82.07
  Q 94.75 81.49 94.04 81.50"
/>
<path stroke="#f0c142" vector-effect="non-scaling-stroke" d="
  M 107.54 110.75
  Q 105.70 110.09 104.30 108.81
  Q 101.86 106.57 101.55 106.35
  Q 95.77 102.08 90.60 97.09
  A 1.09 0.89 -68.8 0 1 90.33 96.26
  Q 90.52 94.31 88.79 93.25"
/>
<path stroke="#ce3f34" vector-effect="non-scaling-stroke" d="
  M 36.04 71.25
  Q 36.10 70.00 35.42 70.49
  A 0.52 0.51 51.9 0 1 34.73 70.40
  Q 34.05 69.57 34.51 67.69
  A 2.09 2.08 -64.5 0 0 33.76 65.56
  Q 26.99 60.34 20.29 55.69
  Q 18.21 54.24 17.20 56.29
  Q 16.95 56.79 16.79 56.29
  Q 16.63 55.80 16.71 55.25"
/>
<path stroke="#866294" vector-effect="non-scaling-stroke" d="
  M 31.21 82.75
  Q 30.62 82.87 30.35 82.42
  Q 23.43 71.32 16.99 59.93
  Q 16.79 59.56 16.79 59.00
  Q 16.79 57.62 15.54 57.25"
/>
</g>
<path fill="#09a25a" d="
  M 111.96 61.00
  Q 106.27 66.00 98.89 65.93
  Q 97.11 65.91 94.78 66.31
  Q 92.70 66.66 90.56 66.39
  A 0.81 0.68 -67.8 0 0 89.84 66.77
  Q 89.52 67.25 89.00 67.50
  A 1.45 0.57 -23.5 0 0 88.00 68.50
  Q 88.11 69.09 87.54 69.00
  L 68.49 37.24
  Q 66.97 34.69 69.95 34.53
  Q 79.70 34.00 89.93 34.37
  Q 93.80 34.51 95.78 35.79
  Q 97.98 37.20 99.29 39.61
  Q 100.41 41.66 100.43 41.69
  Q 106.28 51.29 111.96 61.00
  Z"
/>
<path fill="#d63f34" d="
  M 36.04 71.25
  Q 36.10 70.00 35.42 70.49
  A 0.52 0.51 51.9 0 1 34.73 70.40
  Q 34.05 69.57 34.51 67.69
  A 2.09 2.08 -64.5 0 0 33.76 65.56
  Q 26.99 60.34 20.29 55.69
  Q 18.21 54.24 17.20 56.29
  Q 16.95 56.79 16.79 56.29
  Q 16.63 55.80 16.71 55.25
  Q 24.39 41.53 27.31 37.56
  Q 29.17 35.04 32.24 34.55
  Q 32.48 34.51 37.76 34.46
  Q 47.00 34.37 56.16 34.75
  A 0.95 0.94 16.3 0 1 56.95 36.17
  L 36.04 71.25
  Z"
/>
<path fill="#c63e34" d="
  M 36.04 71.25
  Q 34.16 74.95 32.00 78.50
  Q 31.52 79.28 31.21 82.75
  Q 30.62 82.87 30.35 82.42
  Q 23.43 71.32 16.99 59.93
  Q 16.79 59.56 16.79 59.00
  Q 16.79 57.62 15.54 57.25
  L 16.71 55.25
  Q 16.63 55.80 16.79 56.29
  Q 16.95 56.79 17.20 56.29
  Q 18.21 54.24 20.29 55.69
  Q 26.99 60.34 33.76 65.56
  A 2.09 2.08 -64.5 0 1 34.51 67.69
  Q 34.05 69.57 34.73 70.40
  A 0.52 0.51 51.9 0 0 35.42 70.49
  Q 36.10 70.00 36.04 71.25
  Z"
/>
<path fill="#4585f4" d="
  M 15.54 57.25
  Q 16.79 57.62 16.79 59.00
  Q 16.79 59.56 16.99 59.93
  Q 23.43 71.32 30.35 82.42
  Q 30.62 82.87 31.21 82.75
  Q 31.71 85.62 32.81 87.44
  Q 44.92 107.27 56.67 127.29
  Q 58.12 129.75 55.27 129.75
  Q 45.25 129.75 35.24 129.75
  Q 31.46 129.75 29.57 128.45
  Q 27.26 126.86 25.44 123.81
  Q 15.30 106.82 5.18 89.82
  Q 5.14 89.75 3.54 87.40
  Q 0.25 82.59 3.56 77.06
  Q 13.12 61.08 15.54 57.25
  Z"
/>
<path fill="#069b53" d="
  M 111.96 61.00
  Q 121.18 75.27 122.94 79.56
  Q 124.55 83.48 121.92 87.42
  Q 120.40 89.69 120.34 89.79
  Q 114.79 99.17 108.79 108.25
  Q 109.04 105.97 107.75 103.75
  Q 101.63 93.19 95.27 82.77
  Q 95.22 82.69 94.98 82.07
  Q 94.75 81.49 94.04 81.50
  Q 91.51 74.89 87.54 69.00
  Q 88.11 69.09 88.00 68.50
  A 1.45 0.57 -23.5 0 1 89.00 67.50
  Q 89.52 67.25 89.84 66.77
  A 0.81 0.68 -67.8 0 1 90.56 66.39
  Q 92.70 66.66 94.78 66.31
  Q 97.11 65.91 98.89 65.93
  Q 106.27 66.00 111.96 61.00
  Z"
/>
<path fill="#505051" d="
  M 147.95 73.98
  Q 143.83 73.32 142.00 73.75
  Q 139.27 74.39 139.51 71.60
  A 0.98 0.95 2.3 0 1 140.47 70.74
  L 159.44 70.58
  A 1.60 0.94 -15.7 0 1 160.35 70.82
  Q 161.57 71.73 160.61 73.17
  A 1.08 0.89 12.5 0 1 159.80 73.58
  L 152.69 73.91
  A 0.54 0.54 -45.0 0 0 152.17 74.43
  Q 151.87 84.30 151.99 94.18
  Q 151.99 94.28 152.09 95.31
  Q 152.32 97.62 149.21 97.17
  A 0.83 0.83 -86.0 0 1 148.50 96.35
  L 148.44 74.55
  A 0.58 0.58 4.7 0 0 147.95 73.98
  Z"
/>
<rect fill="#505051" x="237.50" y="70.52" width="3.24" height="26.98" rx="1.10"/>
<circle fill="#505051" cx="278.95" cy="72.42" r="1.99"/>
<path fill="#505051" d="
  M 346.00 70.74
  Q 347.22 70.05 348.75 70.81
  A 1.52 1.27 88.1 0 1 349.38 71.52
  L 359.83 96.49
  A 0.49 0.49 -21.8 0 1 359.55 97.14
  Q 358.10 97.66 357.00 97.36
  Q 356.04 97.10 355.48 95.69
  Q 354.51 93.27 353.56 90.42
  A 1.71 1.71 80.8 0 0 351.94 89.25
  L 342.87 89.25
  A 1.79 1.79 9.3 0 0 341.17 90.47
  Q 340.27 93.20 339.34 95.65
  Q 338.85 96.94 338.01 97.26
  Q 336.99 97.65 335.68 97.23
  A 0.50 0.50 -70.9 0 1 335.37 96.58
  Q 339.90 84.64 344.42 73.03
  Q 345.11 71.24 346.00 70.74
  Z
  M 346.74 75.44
  L 342.91 85.77
  A 0.41 0.37 -78.8 0 0 343.24 86.31
  L 350.37 86.47
  A 1.18 1.15 79.2 0 0 351.44 84.84
  L 347.60 75.42
  Q 347.15 74.33 346.74 75.44
  Z"
/>
<path fill="#505051" d="
  M 366.76 87.06
  L 366.71 95.99
  A 1.37 0.79 78.8 0 1 366.41 96.87
  Q 365.15 98.08 363.49 97.20
  A 0.90 0.80 -77.2 0 1 363.07 96.44
  L 363.19 71.44
  A 0.54 0.53 -1.7 0 1 363.70 70.91
  Q 369.34 70.59 375.00 70.78
  Q 382.43 71.02 383.21 77.07
  Q 383.70 80.82 381.69 83.45
  Q 379.46 86.36 375.00 86.41
  Q 371.15 86.45 367.31 86.55
  A 0.56 0.52 -0.0 0 0 366.76 87.06
  Z
  M 378.82 81.55
  Q 380.16 79.50 379.69 77.41
  Q 379.25 75.41 377.32 74.40
  Q 375.81 73.60 374.01 73.63
  Q 371.58 73.67 371.48 73.67
  Q 369.33 73.59 367.18 73.87
  A 0.64 0.63 -0.1 0 0 366.62 74.42
  Q 366.03 78.73 366.95 82.95
  A 0.64 0.62 83.6 0 0 367.56 83.45
  L 375.27 83.50
  Q 377.54 83.51 378.82 81.55
  Z"
/>
<rect fill="#505051" x="-1.87" y="-13.35" transform="translate(390.36,83.91) rotate(-0.1)" width="3.74" height="26.70" rx="0.93"/>
<path fill="#505051" d="
  M 270.80 81.31
  Q 270.64 90.82 270.75 93.00
  Q 270.86 95.13 273.19 94.88
  A 0.94 0.79 -17.9 0 1 274.00 95.21
  Q 275.55 97.33 272.25 97.50
  Q 269.40 97.65 268.22 96.02
  Q 267.51 95.05 267.50 92.34
  Q 267.47 87.51 267.27 81.84
  A 1.23 1.23 -82.3 0 0 266.41 80.71
  Q 264.22 80.03 265.01 78.72
  A 1.18 0.78 5.3 0 1 265.81 78.29
  Q 267.81 78.07 267.39 75.72
  Q 266.83 72.54 269.34 72.96
  Q 271.21 73.28 270.92 75.15
  Q 270.39 78.58 272.76 78.35
  Q 274.24 78.21 274.05 79.46
  A 1.19 1.04 -14.7 0 1 273.53 80.23
  Q 272.54 80.88 271.31 80.85
  A 0.50 0.47 1.2 0 0 270.80 81.31
  Z"
/>
<path fill="#505051" d="
  M 168.51 79.47
  Q 169.49 78.99 170.41 78.41
  Q 171.62 77.65 172.36 77.53
  Q 174.44 77.19 174.44 79.36
  A 1.57 1.57 -89.5 0 1 172.87 80.93
  Q 170.15 80.95 168.77 82.33
  Q 167.75 83.35 167.76 85.99
  Q 167.78 91.09 167.70 96.19
  A 1.08 0.93 74.9 0 1 167.31 97.00
  Q 165.97 97.99 164.69 97.02
  A 1.10 0.94 -74.0 0 1 164.31 96.19
  L 164.30 79.06
  A 0.86 0.82 76.9 0 1 164.74 78.31
  Q 166.79 77.25 167.85 79.24
  A 0.52 0.49 62.3 0 0 168.51 79.47
  Z"
/>
<path fill="#505051" d="
  M 190.21 79.13
  Q 192.50 80.55 192.50 83.24
  L 192.50 95.50
  Q 192.50 98.46 190.56 97.44
  L 188.71 96.46
  A 1.11 0.90 -39.7 0 0 187.80 96.47
  Q 185.50 97.51 182.44 97.56
  Q 176.62 97.66 175.86 92.83
  Q 175.56 90.90 176.46 89.31
  Q 177.48 87.51 179.31 86.81
  Q 183.62 85.19 188.18 85.49
  A 1.00 0.99 -87.0 0 0 189.25 84.52
  Q 189.35 80.59 185.52 80.12
  Q 181.85 79.66 179.70 82.45
  Q 178.70 83.75 177.30 83.54
  A 0.99 0.98 -77.3 0 1 176.50 82.26
  Q 177.54 78.97 180.63 78.00
  Q 185.78 76.37 190.21 79.13
  Z
  M 188.97 88.22
  Q 185.24 87.48 181.92 88.72
  Q 180.38 89.29 179.64 90.47
  Q 178.48 92.31 179.77 93.69
  Q 180.84 94.83 183.05 95.04
  Q 189.46 95.64 189.25 88.56
  A 0.36 0.34 -86.1 0 0 188.97 88.22
  Z"
/>
<path fill="#505051" d="
  M 201.23 79.30
  A 0.63 0.63 -35.8 0 0 202.17 79.45
  Q 205.05 77.04 208.71 77.92
  Q 213.21 79.00 213.28 83.75
  Q 213.37 90.10 213.66 96.43
  A 0.74 0.67 78.4 0 1 213.24 97.14
  Q 211.88 97.65 210.52 97.14
  A 0.76 0.70 -80.7 0 1 210.06 96.44
  Q 209.96 90.35 210.05 84.25
  Q 210.12 80.16 206.00 80.47
  Q 203.66 80.65 202.29 82.15
  Q 201.27 83.25 201.11 85.66
  Q 200.70 91.77 201.00 94.75
  Q 201.38 98.58 198.21 97.21
  A 0.77 0.76 11.8 0 1 197.74 96.51
  L 197.92 78.94
  A 0.77 0.74 80.1 0 1 198.40 78.23
  Q 200.14 77.57 201.23 79.30
  Z"
/>
<path fill="#505051" d="
  M 228.97 90.37
  Q 226.62 89.45 221.00 87.75
  Q 218.25 86.92 217.82 84.40
  Q 217.47 82.41 218.85 80.50
  Q 222.00 76.10 228.56 78.19
  Q 231.70 79.19 232.39 81.75
  A 0.91 0.83 62.6 0 1 232.16 82.62
  Q 231.08 83.61 229.81 82.44
  Q 226.88 79.72 223.35 80.44
  Q 221.84 80.75 221.22 81.85
  Q 220.47 83.19 221.81 84.20
  Q 222.42 84.66 223.81 85.01
  Q 228.09 86.08 230.69 87.31
  Q 233.11 88.45 233.33 90.91
  Q 233.51 92.86 232.21 94.73
  Q 230.40 97.32 227.28 97.66
  Q 224.20 98.00 221.61 97.27
  Q 218.42 96.37 217.38 92.74
  A 0.88 0.76 63.1 0 1 217.59 91.89
  Q 218.44 91.13 219.46 91.59
  Q 219.93 91.81 220.67 92.77
  Q 222.72 95.48 226.50 95.02
  Q 230.34 94.56 229.56 91.04
  A 0.99 0.93 5.3 0 0 228.97 90.37
  Z"
/>
<path fill="#505051" d="
  M 258.56 84.12
  Q 258.73 82.48 257.24 81.28
  Q 256.15 80.41 254.56 80.22
  Q 250.79 79.79 248.49 82.78
  A 1.68 1.24 -71.5 0 1 247.71 83.33
  Q 245.11 84.05 245.72 81.94
  Q 245.97 81.11 246.68 80.36
  Q 250.55 76.30 256.81 77.94
  Q 259.45 78.63 260.67 80.49
  Q 261.48 81.73 261.58 84.68
  Q 261.75 89.80 261.75 94.92
  Q 261.75 96.77 260.76 97.09
  Q 259.67 97.45 257.77 96.53
  A 1.41 1.40 45.2 0 0 256.55 96.52
  Q 253.61 97.89 250.74 97.67
  Q 248.28 97.48 246.62 95.98
  Q 244.53 94.10 245.01 91.38
  Q 245.54 88.36 248.60 86.96
  Q 251.92 85.45 256.94 85.54
  A 1.60 1.60 3.7 0 0 258.56 84.12
  Z
  M 258.5304 89.9923
  A 5.35 3.43 -15.7 0 0 252.4518 88.1380
  A 5.35 3.43 -15.7 0 0 248.2296 92.8877
  A 5.35 3.43 -15.7 0 0 254.3082 94.7420
  A 5.35 3.43 -15.7 0 0 258.5304 89.9923
  Z"
/>
<path fill="#505051" d="
  M 293.6665 97.8999
  A 10.21 9.23 90.3 0 1 284.4901 87.6417
  A 10.21 9.23 90.3 0 1 293.7735 77.4801
  A 10.21 9.23 90.3 0 1 302.9499 87.7383
  A 10.21 9.23 90.3 0 1 293.6665 97.8999
  Z
  M 293.7324 95.1998
  A 7.50 5.73 89.6 0 0 299.4099 87.6600
  A 7.50 5.73 89.6 0 0 293.6276 80.2002
  A 7.50 5.73 89.6 0 0 287.9501 87.7400
  A 7.50 5.73 89.6 0 0 293.7324 95.1998
  Z"
/>
<path fill="#505051" d="
  M 311.13 79.67
  Q 313.19 77.88 314.25 77.75
  Q 322.44 76.77 322.48 85.00
  Q 322.50 89.17 322.50 93.35
  Q 322.50 93.40 322.61 95.16
  Q 322.80 98.48 319.52 97.14
  A 0.73 0.71 -77.9 0 1 319.08 96.44
  Q 319.31 90.72 319.27 85.00
  Q 319.26 82.49 317.57 80.90
  A 1.41 1.35 -20.6 0 0 316.70 80.53
  Q 309.70 80.12 310.08 86.55
  Q 310.25 89.33 310.25 89.47
  Q 310.25 92.34 310.25 95.22
  Q 310.25 96.70 309.64 97.05
  Q 308.87 97.48 307.25 97.05
  A 0.67 0.67 -82.8 0 1 306.75 96.40
  L 306.81 78.81
  A 0.68 0.64 82.8 0 1 307.28 78.16
  Q 309.41 77.59 310.53 79.56
  A 0.40 0.39 54.9 0 0 311.13 79.67
  Z"
/>
<rect fill="#505051" x="-1.74" y="-9.73" transform="translate(279.01,87.76) rotate(0.2)" width="3.48" height="19.46" rx="1.22"/>
<path fill="#e6b942" d="
  M 94.04 81.50
  Q 94.75 81.49 94.98 82.07
  Q 95.22 82.69 95.27 82.77
  Q 101.63 93.19 107.75 103.75
  Q 109.04 105.97 108.79 108.25
  L 107.54 110.75
  Q 105.70 110.09 104.30 108.81
  Q 101.86 106.57 101.55 106.35
  Q 95.77 102.08 90.60 97.09
  A 1.09 0.89 -68.8 0 1 90.33 96.26
  Q 90.52 94.31 88.79 93.25
  Q 90.98 89.71 92.94 86.05
  Q 93.52 84.98 93.71 83.83
  Q 93.90 82.67 94.04 81.50
  Z"
/>
<path fill="#f9c842" d="
  M 88.79 93.25
  Q 90.52 94.31 90.33 96.26
  A 1.09 0.89 -68.8 0 0 90.60 97.09
  Q 95.77 102.08 101.55 106.35
  Q 101.86 106.57 104.30 108.81
  Q 105.70 110.09 107.54 110.75
  Q 102.09 121.02 97.81 127.06
  Q 96.80 128.49 94.94 129.24
  Q 93.72 129.74 91.49 129.83
  Q 80.58 130.32 70.66 129.81
  Q 66.98 129.62 68.88 126.44
  L 88.79 93.25
  Z"
/>
</svg>
