<?xml version="1.0" encoding="UTF-8" standalone="no"?>
<!DOCTYPE svg PUBLIC "-//W3C//DTD SVG 1.1//EN" "http://www.w3.org/Graphics/SVG/1.1/DTD/svg11.dtd">
<svg xmlns="http://www.w3.org/2000/svg" version="1.1" viewBox="0 0 400 173">
<path fill="#ce6599" d="
  M 269.81 102.30
  A 0.78 0.78 -27.7 0 0 270.79 102.58
  Q 285.38 95.85 300.22 99.86
  Q 310.65 102.68 315.94 111.56
  Q 318.04 115.10 318.35 119.28
  Q 318.66 123.54 316.95 126.99
  Q 314.60 131.73 309.23 133.82
  A 1.40 1.06 -38.7 0 1 308.27 133.85
  Q 307.03 133.34 308.72 132.24
  Q 314.53 128.49 314.58 122.62
  Q 314.62 117.72 310.96 113.18
  Q 307.09 108.39 300.70 106.51
  Q 286.70 102.37 273.38 107.03
  A 1.19 1.19 -20.6 0 0 272.67 108.59
  Q 274.83 113.98 273.49 118.79
  Q 272.32 122.96 267.96 126.62
  Q 263.64 130.25 258.18 132.01
  Q 254.81 133.10 252.77 132.34
  Q 250.37 131.46 250.01 128.64
  Q 249.79 126.93 250.57 124.41
  Q 253.32 115.51 261.14 108.84
  A 1.99 1.99 -33.5 0 0 261.63 106.44
  Q 257.98 99.13 256.50 91.48
  Q 256.30 90.49 255.78 91.37
  L 243.80 111.61
  A 2.56 2.39 -42.6 0 0 243.63 113.84
  Q 245.75 118.79 245.41 123.51
  Q 245.07 128.14 241.62 132.05
  Q 235.03 139.52 224.00 139.57
  Q 218.36 139.60 219.29 135.85
  Q 219.65 134.38 221.58 131.81
  Q 225.73 126.27 230.32 121.08
  Q 232.12 119.05 233.30 116.94
  Q 234.31 115.13 233.36 113.29
  Q 229.80 106.33 228.34 98.74
  A 0.81 0.62 86.0 0 0 227.78 98.10
  Q 226.98 97.99 226.56 99.06
  Q 220.72 113.99 212.47 129.20
  Q 209.15 135.31 208.93 135.68
  Q 206.80 139.08 204.06 141.31
  Q 201.35 143.53 198.87 142.17
  Q 197.06 141.19 196.27 138.49
  Q 195.08 134.44 195.50 129.50
  Q 195.68 127.40 194.51 128.20
  Q 194.10 128.48 193.85 129.10
  Q 192.62 132.14 191.15 135.06
  Q 191.10 135.16 189.83 137.86
  Q 188.70 140.28 186.99 142.30
  Q 185.10 144.55 182.82 145.25
  Q 178.35 146.64 175.31 142.44
  Q 171.72 137.46 170.67 130.58
  Q 170.02 126.35 170.71 120.93
  Q 171.32 116.13 172.53 111.38
  Q 173.04 109.39 171.29 110.40
  L 161.11 116.24
  A 1.00 0.97 61.7 0 0 160.74 117.55
  Q 161.98 120.02 162.34 122.03
  Q 165.82 141.97 152.93 154.81
  Q 147.41 160.31 141.05 162.66
  Q 134.31 165.16 126.50 164.50
  Q 123.11 164.21 120.61 162.63
  Q 118.35 161.19 117.00 157.97
  Q 112.23 146.53 120.60 136.35
  Q 124.11 132.08 128.53 128.78
  Q 137.95 121.73 148.37 116.57
  A 1.28 1.28 49.2 0 0 148.53 114.38
  Q 137.01 106.29 125.81 97.94
  Q 119.15 92.97 113.53 85.43
  Q 105.00 73.98 111.06 60.81
  Q 117.32 47.23 130.51 36.99
  Q 148.89 22.71 172.19 13.94
  Q 184.37 9.35 195.48 8.10
  Q 209.03 6.57 221.50 10.25
  Q 226.77 11.81 231.71 15.58
  Q 241.19 22.83 240.31 35.00
  Q 240.00 39.31 238.46 43.35
  Q 230.16 65.09 208.59 73.89
  Q 193.42 80.07 177.00 79.17
  Q 168.54 78.70 161.72 73.76
  Q 158.40 71.35 157.05 67.48
  Q 156.68 66.40 157.30 65.96
  A 0.72 0.57 47.4 0 1 158.11 66.09
  Q 166.26 73.74 177.75 73.01
  Q 196.24 71.82 211.47 61.42
  Q 221.21 54.77 227.03 44.51
  Q 230.93 37.62 229.25 30.75
  Q 228.51 27.72 226.08 25.41
  Q 224.20 23.62 220.93 22.31
  Q 214.33 19.66 206.50 19.75
  Q 196.15 19.87 187.79 22.15
  Q 158.75 30.05 136.56 49.06
  Q 129.84 54.82 125.77 63.66
  Q 120.68 74.67 126.81 84.44
  Q 128.56 87.22 131.50 90.23
  Q 133.36 92.14 137.10 95.13
  Q 146.97 103.02 156.62 111.17
  A 0.75 0.75 -38.0 0 0 157.45 111.27
  Q 166.82 106.42 175.97 101.17
  Q 178.06 99.97 180.06 97.74
  Q 184.72 92.56 190.84 89.11
  Q 193.45 87.64 196.32 87.57
  Q 199.12 87.50 200.82 88.99
  Q 202.76 90.69 202.88 93.75
  Q 203.00 96.75 203.00 99.77
  A 0.63 0.63 -7.1 0 0 203.79 100.38
  Q 211.43 98.43 209.22 105.74
  Q 207.47 111.50 206.12 117.35
  Q 206.09 117.48 205.28 120.60
  Q 204.15 124.95 204.50 129.51
  Q 204.70 132.11 205.90 129.80
  Q 216.21 109.82 224.98 88.03
  Q 226.16 85.10 226.66 82.47
  A 2.55 2.54 88.8 0 1 228.57 80.47
  Q 233.46 79.30 237.07 79.70
  Q 240.18 80.05 238.95 82.92
  Q 234.03 94.33 239.88 105.31
  A 0.77 0.77 47.1 0 0 241.22 105.36
  Q 247.92 94.64 252.77 83.57
  Q 253.36 82.23 254.18 79.17
  Q 254.72 77.16 255.60 75.26
  A 1.33 1.31 -89.2 0 1 256.26 74.61
  Q 260.87 72.56 265.52 73.48
  Q 268.21 74.01 267.31 76.61
  Q 262.36 90.80 269.81 102.30
  Z
  M 183.01 133.36
  A 0.86 0.85 -49.1 0 0 184.09 133.28
  Q 186.44 131.02 187.61 128.30
  Q 192.54 116.90 196.33 105.07
  Q 197.47 101.48 198.10 97.05
  A 1.60 1.59 -85.2 0 0 196.57 95.23
  Q 193.03 95.12 190.31 98.33
  Q 178.66 112.12 181.10 130.24
  Q 181.36 132.21 183.01 133.36
  Z
  M 263.71 112.61
  Q 258.14 118.43 256.71 124.68
  Q 256.14 127.16 258.48 126.15
  Q 267.53 122.24 265.67 113.17
  Q 265.22 111.02 263.71 112.61
  Z
  M 153.50 120.09
  Q 142.82 125.29 134.17 133.92
  Q 128.53 139.54 127.50 146.25
  Q 126.53 152.57 131.35 153.46
  Q 134.04 153.95 138.03 152.53
  Q 148.76 148.70 153.49 137.75
  Q 157.05 129.50 154.73 120.66
  A 0.88 0.88 69.9 0 0 153.50 120.09
  Z
  M 235.55 122.76
  L 226.81 133.06
  Q 225.74 134.33 227.25 133.75
  Q 234.75 130.89 237.11 123.21
  Q 237.64 121.48 236.51 122.03
  Q 235.92 122.32 235.55 122.76
  Z"
/>
</svg>
