<?xml version="1.0" encoding="UTF-8" standalone="no"?>
<!DOCTYPE svg PUBLIC "-//W3C//DTD SVG 1.1//EN" "http://www.w3.org/Graphics/SVG/1.1/DTD/svg11.dtd">
<svg xmlns="http://www.w3.org/2000/svg" version="1.1" viewBox="0 0 400 173">
<clipPath id="clipping-path-0">
<path d="
  M 0.00 0.00
  L 400.00 0.00
  L 400.00 173.00
  L 0.00 173.00
  L 0.00 0.00
  Z"/>
</clipPath>
<g stroke-width="2.0" fill="none" stroke-linecap="butt" clip-path="url(#clipping-path-0)">
<path stroke="#f46658" vector-effect="non-scaling-stroke" d="
  M 178.75 107.96
  L 177.67 107.52
  Q 176.99 107.25 176.76 107.24
  L 158.54 106.75"
/>
<path stroke="#d12f25" stroke-opacity="0.561" vector-effect="non-scaling-stroke" d="
  M 197.8232 101.7567
  A 9.12 8.59 86.9 0 0 205.9074 92.1855
  A 9.12 8.59 86.9 0 0 196.8368 83.5433
  A 9.12 8.59 86.9 0 0 188.7526 93.1145
  A 9.12 8.59 86.9 0 0 197.8232 101.7567"
/>
<path stroke="#d12f25" stroke-opacity="0.561" vector-effect="non-scaling-stroke" d="
  M 262.95 92.65
  A 8.67 8.67 0.0 0 0 254.28 83.98
  A 8.67 8.67 0.0 0 0 245.61 92.65
  A 8.67 8.67 0.0 0 0 254.28 101.32
  A 8.67 8.67 0.0 0 0 262.95 92.65"
/>
<path stroke="#cb2f26" stroke-opacity="0.561" vector-effect="non-scaling-stroke" d="
  M 314.40 86.17
  Q 311.24 90.18 316.26 89.98
  Q 321.87 89.75 327.52 89.75
  A 0.77 0.77 -10.1 0 0 328.24 88.72
  Q 325.61 81.54 318.26 83.60
  Q 315.91 84.25 314.40 86.17"
/>
</g>
<path fill="#d54338" fill-opacity="0.996" d="
  M 77.64 85.45
  Q 83.03 83.25 88.32 79.56
  A 1.63 1.62 74.9 0 0 89.01 78.35
  Q 89.43 72.99 89.24 67.50
  Q 89.23 67.43 88.97 65.14
  Q 88.70 62.89 89.80 61.09
  Q 90.55 59.86 92.76 58.52
  Q 98.98 54.74 105.45 51.62
  Q 107.15 50.80 108.74 51.70
  L 123.62 60.18
  A 2.14 2.08 15.4 0 1 124.71 62.03
  L 124.52 80.26
  A 1.11 1.00 -21.6 0 1 124.12 81.07
  Q 120.23 84.26 115.75 86.51
  Q 113.61 87.58 112.50 88.32
  Q 110.91 89.37 109.45 90.46
  A 1.68 1.54 -20.3 0 0 108.78 91.76
  L 109.00 106.52
  Q 109.03 108.56 107.39 109.50
  Q 93.29 117.57 78.32 125.29
  Q 78.28 125.32 76.43 126.54
  Q 74.53 127.80 72.64 126.41
  Q 71.23 125.39 71.13 125.33
  Q 57.55 117.18 43.33 109.37
  A 2.46 2.44 14.5 0 1 42.06 107.23
  L 42.00 52.99
  A 1.89 1.73 75.7 0 1 42.84 51.42
  L 56.35 43.07
  Q 58.66 41.65 61.15 43.14
  Q 67.73 47.09 74.19 50.56
  Q 76.48 51.80 76.33 54.74
  Q 76.25 56.21 76.25 56.26
  Q 76.25 70.38 76.25 84.52
  A 1.01 1.01 -11.2 0 0 77.64 85.45
  Z
  M 57.86 59.28
  A 2.17 2.12 42.7 0 0 59.60 59.23
  Q 64.88 56.68 70.08 52.94
  A 0.52 0.52 45.6 0 0 70.08 52.10
  Q 65.62 48.87 61.68 46.72
  Q 58.76 45.14 56.31 46.56
  Q 51.93 49.10 47.43 51.44
  A 1.10 1.10 -40.1 0 0 47.27 53.29
  Q 51.96 56.86 57.86 59.28
  Z
  M 113.35 58.38
  Q 110.74 56.86 107.17 54.96
  A 0.96 0.88 -44.2 0 0 106.28 54.99
  L 95.07 61.06
  A 0.58 0.57 -42.7 0 0 95.02 62.05
  L 104.83 68.27
  A 2.94 2.88 48.3 0 0 107.62 68.46
  Q 112.84 66.02 117.63 61.83
  A 0.42 0.41 42.9 0 0 117.60 61.19
  Q 115.56 59.66 113.35 58.38
  Z
  M 71.45 107.51
  L 57.99 99.46
  A 1.05 1.02 -78.3 0 1 57.50 98.69
  Q 56.88 93.64 57.00 91.00
  Q 57.60 77.75 57.00 64.43
  Q 56.89 62.14 55.10 61.20
  L 45.24 55.99
  A 0.84 0.80 -77.0 0 0 44.07 56.76
  L 44.24 105.73
  A 2.13 2.11 -75.1 0 0 45.30 107.57
  L 70.31 122.18
  Q 72.48 123.45 72.73 120.96
  Q 73.33 115.00 72.78 109.57
  A 2.79 2.66 13.5 0 0 71.45 107.51
  Z
  M 60.74 63.32
  Q 60.02 79.67 60.79 94.94
  A 0.34 0.34 -12.9 0 0 61.27 95.24
  Q 67.51 92.49 71.90 88.63
  A 3.45 3.34 69.6 0 0 73.03 86.06
  L 72.75 57.77
  A 1.04 1.03 78.7 0 0 71.33 56.81
  Q 66.39 58.79 61.51 61.96
  A 1.73 1.71 74.8 0 0 60.74 63.32
  Z
  M 105.22 74.92
  Q 105.30 72.56 103.56 71.19
  Q 99.71 68.14 93.27 65.27
  A 0.38 0.38 -74.0 0 0 92.74 65.57
  Q 91.95 71.78 92.53 78.37
  A 1.75 1.67 13.0 0 0 93.40 79.69
  L 102.84 85.10
  A 1.08 1.07 23.4 0 0 104.40 84.49
  Q 105.31 81.51 105.14 78.09
  Q 105.13 77.94 105.22 74.92
  Z
  M 119.78 65.95
  Q 115.88 67.42 112.30 69.59
  Q 109.69 71.16 109.56 71.26
  Q 108.18 72.45 108.30 74.45
  Q 108.41 76.31 108.41 76.44
  Q 108.31 80.70 108.76 84.95
  A 0.35 0.35 -17.0 0 0 109.27 85.22
  L 119.59 79.64
  A 2.11 2.02 -15.7 0 0 120.71 77.75
  L 120.25 66.23
  A 0.35 0.33 -12.2 0 0 119.78 65.95
  Z
  M 100.55 88.10
  Q 96.01 84.27 91.51 82.68
  A 3.10 3.08 -51.0 0 0 88.86 82.97
  Q 76.49 90.67 63.72 96.79
  A 1.29 1.29 -39.4 0 0 63.50 98.98
  Q 68.47 102.74 73.41 104.94
  A 2.91 2.82 41.5 0 0 75.99 104.82
  L 100.32 90.92
  Q 102.45 89.70 100.55 88.10
  Z
  M 104.13 105.93
  A 1.66 1.66 -20.8 0 0 104.55 104.97
  Q 105.00 100.01 104.41 93.56
  A 0.52 0.51 73.1 0 0 103.65 93.15
  L 77.79 107.57
  Q 76.27 108.42 76.30 110.00
  L 76.53 122.09
  A 0.64 0.61 -16.4 0 0 77.49 122.59
  Q 89.65 115.42 100.51 109.05
  Q 102.23 108.04 104.13 105.93
  Z"
/>
<path fill="#e83328" d="
  M 178.75 107.96
  L 177.67 107.52
  Q 176.99 107.25 176.76 107.24
  L 158.54 106.75
  Q 158.16 106.23 158.16 105.56
  Q 157.97 84.68 158.55 63.81
  A 0.80 0.77 79.1 0 1 159.01 63.10
  Q 162.37 61.63 165.79 63.05
  A 0.76 0.76 -79.4 0 1 166.26 63.74
  Q 166.74 81.40 166.50 95.25
  Q 166.45 98.01 167.36 100.23
  A 0.75 0.74 -11.2 0 0 168.05 100.69
  Q 172.84 100.68 177.62 100.93
  Q 179.02 101.01 179.68 101.64
  Q 180.58 102.49 180.61 103.85
  Q 180.66 106.04 180.65 106.12
  Q 180.61 107.68 178.75 107.96
  Z"
/>
<rect fill="#e83328" x="-4.10" y="-22.65" transform="translate(343.41,85.45) rotate(0.4)" width="8.20" height="45.30" rx="2.57"/>
<path fill="#e83328" d="
  M 200.27 77.98
  Q 202.75 78.30 204.20 79.91
  A 0.96 0.96 -50.5 0 0 205.74 79.76
  Q 207.19 77.32 211.87 78.36
  A 1.80 1.79 -84.7 0 1 213.28 80.07
  Q 213.61 90.87 213.77 102.75
  Q 213.80 105.25 213.33 107.11
  A 1.70 1.70 -85.5 0 1 211.82 108.40
  Q 207.59 108.78 204.91 107.04
  A 0.90 0.88 49.1 0 0 204.04 106.97
  Q 200.44 108.62 196.55 108.86
  Q 192.67 109.09 189.27 107.23
  Q 182.70 103.64 181.56 96.45
  Q 180.53 89.98 183.79 84.48
  Q 188.39 76.72 199.25 77.25
  Q 199.53 77.26 199.68 77.52
  A 0.96 0.62 70.6 0 0 200.27 77.98
  Z
  M 197.8232 101.7567
  A 9.12 8.59 86.9 0 0 205.9074 92.1855
  A 9.12 8.59 86.9 0 0 196.8368 83.5433
  A 9.12 8.59 86.9 0 0 188.7526 93.1145
  A 9.12 8.59 86.9 0 0 197.8232 101.7567
  Z"
/>
<path fill="#e83328" d="
  M 243.19 81.19
  Q 250.01 75.32 258.31 77.94
  Q 259.91 78.44 261.40 79.89
  A 0.47 0.47 -46.7 0 0 262.08 79.87
  Q 265.28 76.38 269.62 78.46
  A 0.87 0.85 -78.7 0 1 270.09 79.18
  Q 270.75 93.06 270.21 106.93
  A 0.71 0.67 84.0 0 1 269.72 107.58
  Q 265.93 108.65 262.39 107.03
  A 1.28 1.24 47.3 0 0 261.46 106.98
  Q 259.18 107.79 256.83 108.37
  Q 249.95 110.07 244.69 106.06
  Q 239.72 102.28 238.36 95.68
  Q 236.56 86.90 243.19 81.19
  Z
  M 262.95 92.65
  A 8.67 8.67 0.0 0 0 254.28 83.98
  A 8.67 8.67 0.0 0 0 245.61 92.65
  A 8.67 8.67 0.0 0 0 254.28 101.32
  A 8.67 8.67 0.0 0 0 262.95 92.65
  Z"
/>
<path fill="#e13329" d="
  M 316.19 101.00
  Q 320.10 103.65 324.50 101.75
  Q 325.19 101.45 327.70 99.79
  Q 329.62 98.52 331.11 98.87
  Q 333.39 99.41 334.13 102.02
  A 1.09 1.00 -37.4 0 1 333.97 102.92
  Q 330.01 108.53 322.00 108.75
  Q 312.39 109.01 308.14 102.97
  Q 304.33 97.56 305.32 89.98
  Q 306.24 82.90 312.44 79.41
  Q 317.79 76.39 323.96 77.65
  Q 334.56 79.81 336.03 92.78
  Q 336.44 96.38 332.82 96.16
  Q 324.00 95.62 313.74 96.25
  A 0.82 0.82 -15.1 0 0 313.06 97.43
  Q 314.16 99.62 316.19 101.00
  Z
  M 314.40 86.17
  Q 311.24 90.18 316.26 89.98
  Q 321.87 89.75 327.52 89.75
  A 0.77 0.77 -10.1 0 0 328.24 88.72
  Q 325.61 81.54 318.26 83.60
  Q 315.91 84.25 314.40 86.17
  Z"
/>
<path fill="#e83328" d="
  M 237.08 77.94
  A 0.72 0.71 84.4 0 1 237.73 78.48
  Q 238.46 81.55 237.58 84.71
  A 0.74 0.70 4.9 0 1 236.93 85.23
  L 226.69 85.91
  A 0.53 0.53 -1.7 0 0 226.19 86.44
  Q 226.29 94.47 226.46 102.50
  Q 226.65 111.28 218.83 107.57
  A 1.80 1.73 13.9 0 1 217.81 105.96
  L 218.48 79.06
  A 1.10 1.07 -0.9 0 1 219.51 78.02
  Q 228.40 77.44 237.08 77.94
  Z"
/>
<path fill="#e83328" d="
  M 288.43 97.67
  Q 289.19 99.69 290.00 97.70
  L 297.88 78.52
  A 0.82 0.65 -75.2 0 1 298.56 78.01
  L 304.57 78.34
  A 0.42 0.38 -78.4 0 1 304.90 78.90
  Q 300.36 91.93 295.15 104.70
  Q 294.25 106.90 293.06 107.70
  Q 291.38 108.81 289.20 108.51
  Q 288.90 108.47 286.78 108.33
  Q 284.89 108.20 284.24 106.33
  Q 283.82 105.13 283.80 105.07
  Q 278.28 92.23 273.74 78.98
  A 0.57 0.55 -11.6 0 1 274.24 78.25
  L 279.43 77.83
  A 2.02 1.97 -12.3 0 1 281.47 79.10
  L 288.43 97.67
  Z"
/>
<path fill="#100a08" fill-opacity="0.118" d="
  M 314.40 86.17
  Q 315.91 84.25 318.26 83.60
  Q 325.61 81.54 328.24 88.72
  A 0.77 0.77 -10.1 0 1 327.52 89.75
  Q 321.87 89.75 316.26 89.98
  Q 311.24 90.18 314.40 86.17
  Z"
/>
<path fill="#100a08" fill-opacity="0.118" d="
  M 197.8232 101.7567
  A 9.12 8.59 86.9 0 1 188.7526 93.1145
  A 9.12 8.59 86.9 0 1 196.8368 83.5433
  A 9.12 8.59 86.9 0 1 205.9074 92.1855
  A 9.12 8.59 86.9 0 1 197.8232 101.7567
  Z
  M 201.47 91.89
  A 1.32 1.31 -7.3 0 1 200.00 90.76
  Q 199.76 88.97 198.38 88.73
  Q 197.45 88.57 196.12 88.68
  Q 194.54 88.82 194.10 90.51
  Q 193.98 90.98 193.67 91.38
  Q 192.62 92.74 193.81 93.97
  A 1.46 1.14 -74.6 0 1 194.16 94.81
  Q 194.24 95.96 195.75 96.50
  Q 200.85 98.31 202.66 93.72
  Q 203.49 91.62 201.47 91.89
  Z"
/>
<path fill="#100a08" fill-opacity="0.118" d="
  M 262.95 92.65
  A 8.67 8.67 0.0 0 1 254.28 101.32
  A 8.67 8.67 0.0 0 1 245.61 92.65
  A 8.67 8.67 0.0 0 1 254.28 83.98
  A 8.67 8.67 0.0 0 1 262.95 92.65
  Z
  M 258.53 92.19
  Q 258.25 90.09 256.00 88.50
  Q 253.79 86.94 251.27 89.66
  Q 250.91 90.04 250.79 90.54
  Q 249.52 95.59 252.21 97.34
  Q 253.68 98.30 255.42 97.95
  Q 257.37 97.56 258.10 95.48
  A 1.79 1.55 -12.4 0 1 258.66 94.73
  Q 259.70 93.94 258.93 93.04
  A 1.82 1.39 27.3 0 1 258.53 92.19
  Z"
/>
<path fill="#ff9988" d="
  M 178.75 107.96
  Q 169.32 109.42 160.81 108.44
  Q 159.33 108.27 158.54 106.75
  L 176.76 107.24
  Q 176.99 107.25 177.67 107.52
  L 178.75 107.96
  Z"
/>
</svg>
